<mxfile host="Electron" agent="Mozilla/5.0 (X11; Linux x86_64) AppleWebKit/537.36 (KHTML, like Gecko) draw.io/24.7.5 Chrome/126.0.6478.183 Electron/31.3.0 Safari/537.36" version="24.7.5">
  <diagram name="Page-1" id="mZiv5JYO6JPkQAF8UA1Y">
    <mxGraphModel dx="3240" dy="2505" grid="1" gridSize="10" guides="1" tooltips="1" connect="1" arrows="1" fold="1" page="1" pageScale="1" pageWidth="850" pageHeight="1100" math="0" shadow="0">
      <root>
        <mxCell id="0" />
        <mxCell id="1" parent="0" />
        <mxCell id="M4ANcZjag6311-E_DbSd-1" value="" style="shape=image;verticalLabelPosition=bottom;labelBackgroundColor=default;verticalAlign=top;aspect=fixed;imageAspect=0;image=data:image/png,iVBORw0KGgoAAAANSUhEUgAABWkAAAHyCAYAAACZA0xMAAAABHNCSVQICAgIfAhkiAAAABl0RVh0U29mdHdhcmUAZ25vbWUtc2NyZWVuc2hvdO8Dvz4AAAAqdEVYdENyZWF0aW9uIFRpbWUAem8gMDQgYXVnIDIwMjQgMDE6MTU6MTMgQ0VTVLScf4IAACAASURBVHic7N1/bFvnnef7d1KXTNpQTSGmmFDtvTguumQHO9Q2ADOTSNsEzKxjTselMBYYrCyho0sDFoQLWQLKoQFLwoUsYaMygH5gIMiABU0hKfeGUC4kZ1rZ3mvCDSRvJ4QyFWs05Bb1AaYVu0ApTCqmbcik6f2DlEXK+kEpdpS0nxcgwJYOz3n4nOc8z3O+53me84BhGH9ARERERERERERERD4Sn/vc5/j1r3995/8PHmJaRERERERERERERP7kKUgrIiIiIiIiIiIicogUpBURERERERERERE5RArSioiIiIiIiIiIiBwiBWlFREREREREREREDpGCtCIiIiIiIiIiIiKH6EglG332s5/ls5/9LJ/61Kd44IEH7nea5I/Ee++9x6c//enDToaIiIiIiIiIiMh98cEHH/Dee+/xm9/8hnfffffA+9kzSPuFL3yBP/zhD/z2t7/lgw8+OPCB5E/Po48+yttvv33YyRAREREREREREbkvHnjgAR588EE+97nP8eCDD/Lb3/72QPvZdbmDz3zmM3zwwQf85je/UYBWREREREREREREpMQf/vAHfv/735PNZrHZbFit1gPtZ88gbT6fP9CORURERERERERERP5U/Pa3v+WRRx450Gd3DdIeOXKE999//0A7FhEREREREREREflT8cEHHxz4/Uy7BmkffHDXP4uIiIiIiIiIiIgIhaUPDhpPVRRWRERERERERERE5BApSCsiIiIiIiIiIiJyiBSkFRERERERERERETlECtKKiIiIiIiIiIiIHCIFaUVEREREREREREQOkYK0IiIiIiIiIiIiIodIQVoRERERERERERGRQ6QgrYiIiIiIiIiIiMghUpBWRERERERERERE5BApSCsiIiIiIiIiIiJyiBSkFRERERERERERETlECtKKiIiIiIiIiIiIHCIFaUVEREREREREREQOkYK08rFk84+zfKOfOsthp6QSFtyBMM0eW9lvq+ua6fS7+bh8BYu7h6vLMwQd9/1A9FxdZqb5oAey4I3cZHncf//zzhZgcvkG/TsUNIunh6s3bxA5Xji3RnCG5cth3Pc7XR8LTvydQbwHPI07X8MfYr+WOnqu3uLWrUkCtm032PZavP8seHqusjzTTMVfywgyu3yZ8IEL0wGOCVBdR+f4ZW4s32J5thMnDgLjN7g5E8RZ4S6cnbPcvDFOYJcDV7LNvWfDGehn5upNlm8tc/PqDP0BNx9FabDU9XD15lX6vR912SthO07kxk0u93h2qTsPWG4+SjYngf4Zrt5c5tbyTa7O9BNw7zdfLTjqOhm/usyt5RGOf+jGxCA4u8zlSi9YmxN/zySXbyyzfGuZG5fHCXsdd52X6rpORmZvsLy8zPKNy4x3evd/XhxBZm7d4taWn4O1odUcH7nBrVs3iXhLPm3xErm5zLh/rz3unu8W4zg9k5e5uXyL5Zs3mB0J4qnedyJ3Tb+nuZ/JYh2wfGOWkWAdWw9hcwfon7laTMdVZiPbpMNSOIcHLocWg+Ph8UIZWL7J1dlxwl7j7nNSUXmvxtMcYXajbrs8Sc/x8n1Z/OMsb1MOyvtiNtyBfiYv32R5uVBHbpc/1Z4gkZL8mezx4ywtDhX3J6vxNI9wefkWt2aa7zrOnp/eIx2FbZqL2xSuoZn+Zu4+TXvnH9hwN48we2OZW8vLXJ3px298HHrw+2+j730SvHSOzHJjeZlbyze4PB7m+Na8qeR6sRgcL9aLt5aXuTE7Qmfd3aXiw9aLFoeX8EY/Z/nG9tf3xne6uczyzRtcnuzBv7Vw7cqGuzmy2d/YtkwV67yZG9y6tfO9hojIVvc1SGtx1NHcP8nlG8XO0s2rzIyE8TtLKm2Ll8jNuzsVhZ+r9Lgt4A5zedu/b/7c6K/72ATD5CNS3bxNgM1CXf8Nlg/QGTwwSz0t7V5cllzJL23Ut7TjNXLkP6p0yD2XX40TW7rOopnbe+M/MhZ3gPaAG0v247JfC+72LhpqgJ1Ox7bXopRytnRx2p3mUttJmkITpMhiLi6yFE+SqXAfmfgiS4uLJIvn0HJ8hOUtAZmt23wUbN5eLvbWk41203qiidBUBk94lN6PIHCaT8eJLS0SN+/hF962jdtFzmTx+hJL8dVPcLvjwB+5SNidZqq7jaa2bqJZD+HxCP5K79ItBv7+l5kd9WHNVFqq7yUHgcgkvfXrzL/YRtPJVl6MWfFFxulyb55LizPIxdEANckh2pqaaBuKYwtEGA3v7+GupcaBPbfCpaYTnDix+dN4PrbvcmCr66Kr3r7PT20kZI98r/bSOz5AfS5GX1sTraFLmEY7I6P3KvhkwRkcZbzLTWaqm7aTTbQNrVATjDDabGxu5vATGQ/jTk8RajpB09kJkkY7Iy81s7lVNccHLtL7XI5odysnW7uJZjyER/srLIfVHI9M8pLPRnyog9bWEGPxQhnorSutjyor787gKCPtBsmJEK1NbfTF4LmB8bK6rcaww+1X6DhRXg5C8+k72xjNo4yHPeRifbS1thKaMKkJjnKxtMw5g4yOBHEkxzjbdJLW7ijr9b1cHDi+v361w0t45lXGT9vJrh6gTa4gHRZ3JxfHu3BmonS3tdLWFyXt7mJ8vPRcVpZ/uNvpP1dL5lIrx060Ec176e1vKdvP4dh/G31PWQrlsaFqkRdbmzjZ9iIxq4+B8TCeO4WmkuvFhrd3nIH6deb7WjnZ1MbQip3A6EU6nfewXiym129b4sW2kzR1jGE62xkZLSkTtjp6JiMEapJc6m6l9eyLxHL19F6svJ0xApFiXROi6WTrZpm6c33bcAdGmJ0dwJPPHM65E5FPrCP3a8cWZ4DRi73U24H1VZLJNBa7Qe1zLdTW1+EOtXIhtlbyiQwr1+Oky3qUGeLZPORWWFqwkwLAhlFXj6tqnduLS6SK90Pr8fQn+KZEPskstXW4STAYLymBtjq87izxCfPwEiYfXvoKg6Erh52KQ2F4a7GnosTvcZDtwPs1AnQF7Cy+cp3ahqptN9n2WpQSFux2OzlzjoV4io0WOD7dTXwfe1lbGia09OG3ubcsuD0G69fH6JuIkQYw+5jyXeO0140ltnR/+wjmx6CuyKeYvxBi/nBT8aFY6tpp96wy1Bhiuth8JlZyOGYHaPAazE9X0Kba6/AZSQabBonVjnLDdX/TfBeHF58rw9z5EBNLhVKXSvXhqp/F569lKBEnjw1vexAjOUZj9zwmQOoCIetRXutsx3epjfm1XY+yqboGey5NImlifphCbnETDPvILbxC3Ofb/+f3yHdnSye+XJTWjmESeYAE50N2Jid9NLinGEx82CvUhc9nkJxqJTRduGMgNcigu57xBj/O6WFSQHV9Ax5ihM5PUzg9Jn2DTjzjDfiNaYZNwNnCaS8sdISYWCo0VqlQFsdrkwRb3MwPJnZPirOF0/WwEGrjQqzw+UQiQcY2y2h7gImlCUwqLO+247QHDRKDJ+guFopE4ttgvMw5vxdbbJ4sFhx2O6yliJsm2zavFg/NLR4yc610DMcL9WEiQTJn57XwZplzN/hxpaM0XZgv3HelUoRwcS3SQL3tCvMVtt0Wjw9P5hJtHVFsvTeI7DP2v3c6bHiDAQxzjMazhfyEBHETZmZPE6yL0r2UrzD/wGYY1ORWGIsmSOchtpimvcXAYeHDXVcfWnbfbfS9ZKkP4KtJcKl1mCtrAClSHVZcN7oI1A8Sj+Uru15sXgI+G4vnu5koXhOpC93Ya2fxN7gYHkzAPagXHQ3tNNjj9LUO3klvKORg9uXTtHujhGJ5qn2nabDFGWztJpoGSJBYSWOdrfD6tnhoDnrIRFsJTSfIA6lUBxivMXDn+jbw+qqIn29kMOXn5dmGg58EEfmTc59G0hq09Iapt8Pq9fOcfPZ5Ghsb+eazz9I6tMK69SgvhNtLnsABmCz0hQiFSn8GuWJSDJRs/m4xDZAlPnb+zrYX5hUM248vfOELnDp1ioceemjHbR566CFOnTrFF77whY8wZaWs1Pj6C1OPbi1z8/L4nWkxluMj3PzBOTxWOw0X3+TWzRGOWww6Z9/kYoMda+05fnDrFrOdTjamz98cCXA8vDkV5+6pLTY8d6au3GL5xmVGgp47U2XdnTPcvDlDcMuQD5fXgy25SGlcyOKupzYfJ7ay8UsHdcGRwlSr5WVuXJ0hEvRsjkrYbupzxdMLi6m/M+XrFss3LzPS7CU4c/f0TJs7yMjlzenAkWbPztOBi0sXTHb66dmYTnZ1hh6vgTuwOc3nxuw+p4XZPDSXTu+bHSG4zZSn3bbvLJ0vX1H+Faf53ZkKPU7nXtPit52SbsEIRO5MibtrupYRZHZ5lp5AZ+FYy8X8cTo5XjIV7PJIM+7dsmzPPLJgHA8zvjEl7OZlJvsDJdP8Nsp9kECkME1t+eZVxjvrMDzB4lSyW8XzuXXogAOPxyB5fZE1iksXXO2nOTjC5dL0G146xy/fmYo43nn3tMmd9+uk8/LyXbMgLJ4ert7amufV+DtP40yMMby08x1i2bV40POwV1mDu6b+zfY3bDMVb8v5ubH1/OxTRcfcpZ6xeOi5Wl4/FvJ+y/IixXwL+4OMXL5RqAuvztDv35zGt7mURWHq/JsvPYfV+hwvvXmLW5MBqsu2KUlb52baNuqeO+XlTl1znPBk6fTW8mmOd6ZB3rpVyIfIRp7mWRps5Jtno9wZN2Y5imG3ksvlqbQdKJT1CMHOcS7fXN5cFmDfdVAl57/kfG0sz9BcWJ5h+zZujzKy3VIzFZWbCu2rTiq0Q1unJ9ucfnomLxfro61TTC3Uej3Y4/MslHbp8ktc+OaztJYGaHdLSzpKx6lu5lM71RU75/uG6rvaU2fly2akp2l99ptcWCqP7JSlxuLmuVoryYUFSr9qemGBuNWN17OZJ3uVo5oaO2QyZD5kIMkIhAlUxRgeS+w4WQFbPZ2Tm/lSdn53zXcnvvoazPkopbHYfGqYU083VhagLS4fMHtjo482y0hZm5NguPFpTg2nyj627XfJ58p/v2UjR70HI7vIQunTxPwKVxZXqfF49xxdaTEMHJjEy55GZonHTXB5KHQ9KivvljofnvwS0YXS6NQaV84+z7Nn54vlykpNjY1sJrPzubMaHLWvk1paKXtgtRZfxLS6qa8tnEhzqpvW0BSp7fdSZrf+ZH7hPE1np4nvEFTbuMYKddNNLk/2l9XFe6fDjqvGSmYlwWrpr804iVUbHm8tFirNP8gmk6zi4YUGA0ddJ71BF9nF2J3yajs+ws3lScpX8qomMLnMzXF/sRxW0tefpSfYw+TVm9xaHqfQRd3t/mObJcAqao92b8crlY+P0dHat01wdHNPFV0vuUWGWlsZjJVeEznIgdVS3FvF9eJObHi8bnLxOcrGgaXmWTBtuOtqsWDhqNMB6TjxdMk2+SSLiSw1Hs/eo6ddXjz2VWJziZJrKUtsPk7OVV9cWiHJ2JlWLlwxNYhMRPbt/gRp3QH8tVbILDDYPU/qTu2UJT4R4uz5Pvomlli33pejSwXW19d5+OGHdwzUbgRoH374YdbX1w8hhYCtjmZfhksdjZw42cHEmovTA+fw2iB/JcSzx15kJZdhruMpnng2xJW8yXDTU5yZy5BbeZFjTzxBU0lnvaq+nRbbHB3PP8UTx9qYyHjovTjA8WLvyXa8l0iXgTnWxolnnqHpxTg17f2Ei1GGbDpDOp3eciNk4PHUkIotltyAFTrelpXFYufOgic8TiQAC4NtNJ5oJDSWxBEcZzR4jyZSGQFGR7pwFqfvNbaNkX6uk6Cx5SKzugi012MOt9F4oonQVBpn1wijgd3SYcXt85EebuLZZxs5H7fREJkh4l1hsOlZnjrWwQI+ensbKpsKZ3ESHB+hy2UycbaRY42FKU/B0VG2z47C9u0uk4mzTZxobGMoXkVDZJKeusojXtX+fkbDHnLRbppONNI6GMdoD+LcZz1krfHR7l9nqqOxkJZkzV3TtbAaPOe3MtX6LE+dKObPyxd5ITtG07NP8UzbBGueLnpbdsj3CvLI5u1lfMAHi320NjbSFJom4w4zPhoo62BW1fvxxPs4+dSzNA0nMU6PMhN2ETt/gqeePVE4n/1dlC4/SHU9zxkm8dIerN1Lg7FA6PmN9J9jcjKILXqWZ596itbhJK7TvbTv1oku22+K+fkktnpfyQM7Cx5/PfZkjGjJQAabt4v2+gwTQ1F2njW5zbW47/NQQVmzuOkcjRCoWWGorZETjSGmcn7afXZKi5LNO8B4bx3ZufM0NZ6gKTTNqjvMeMS//yBZRcfco57Jxxk8UV4/HuvbYXSp1cAfMIiFTvLUE8foWABvbz93F9c88cETPHX+OrncIuefeoInzkS5+568kLbRgJ340FkaGxs5O5bEaB/nYmfpFEYr7oYXYKqN5596gsbuONUN/fT6izWLI8BLkQD2eB9Nx57hWOsQpjtMf/s20yBtbppH+2mwJ1mY3wxK7NUOAFDjxW8sMnjqBMfaoqQPUAftff6LeRK0Ex9qo/FYI2cnTNxd40T8jh3auG0PtbMKy2pl+6qkThpgfMCHdbGP1sZjNIU2pid7C8EGh5/IxTC1tycINZ3gROt5ouv19I72Uph1bMM4amd1NUNt50ghGHdzI5Br20da8rvcFO+e7wAYzbw00oUzPXGnPTWf6yKwtT2tOO+q8TSHaTHMzbJoM3DYsphbl8fImaxmrNTU1Gzm6R7lyGHYsVrdtM9c5cbNZW5e3X4d1l1V+wm3GyTGhojtOC/Xivt0O8b1PlobT9DaPU/uuV4uRjamn++S7xYDw5HFzDhojhSCS8s3rzITaaayJcQtuLtGGPDbiL/YxolnjtH04go1LRF6j++0AwuOunbCPhuJufk7wb61xTkW8dLeVYfDApZqDy1dz2FLzFEY72HBMGpgNUmy7AvlSabS4Khhz2fSaxmy1mqMsg0tuFwOrFY7jsKTn4rKu+Gqwbq6Ss4bZvzyDW4u3+TG7DjhsvUvHTiqrViMFiZ32iaXIZOz4jBqypJqc9VSY63Cbi8cM5tOkDBLa3EHDS112BKx8hkwe/Un87uUh2o/Axt91sYTPNN4lmiunt5I+52lL/ZOxzrpLNhrHOUPUKpdGHYrNnv1PvIPSE0wOJfBHZ7ltYstOBIv0tEX2wzixuZZyrrx+UqXzvDhc+dYisZYq7Svb3Xh81Wx0H2KZ46FWMjvff9RrsL2qOJ2fA9Zk0TCLLvHcQZb8GTjXI8XHoBWdL3k10glUmUzZm2eIH5XhsUryX3ViztzYDggk946mnwV08xhr3FgJU8mnQW7a8t1XIPLsGG1ObDvcX1bHA5qSJPcMj4sbyZJ48BZYwHy5BWdFZEDui9B2mqXi6PA+sp1FjdqSUs1htOJ02ljPbnCyopJRssGHpp3332X6elpHnjggbsCtRsB2gceeIDp6WnefffdQ0pliunzw1xJmJipJSZenCNpc1PnKjZ+OQqNei5HfqMlzG8WqtzWDmJ2kbG+eVLZPPm1BPPnh1nAS4uvcKtjq3Fgy5rEYgnSa2ukrlyg6dkThelSgBk9S2NjiLJB24466g2TxbKhAgZ1tTYSsXihk2DzEfRbWegOMRFLYKZN4vMX6J4wcfkD9+AlVBbcgWY82TkunJ9mKWViJq4weD5Kapt7ysTEtxmOJTDNFEvT57kwl8XTvHs6VmNjTMTXyGdNrkzFWLVmWZyIkljLk08vMTWXBIeToxU8orfUn6bFZTIW6iYaN0mbCa5cCBEairFquXsHFu9pWlxpJkLdROMpTDPBlcFvMxS30XDaV+GNqEFDSz0sDBKaiJEyTVKxCbrHDjIF2iTafYH5hIlpxpnvDjFhGjScri+5GcqyODZELF3In0tzSay5FV4Zi7OWz7MWn+KVBDjczm1HNeydRwaBoA9rrI/QcIyEaZJainK+O0rGE6S5NFCajDIUTbCWz5KaixLPWEkvjjGfyhbP5xKrVgN3Scfd5qnDmV0hVtYBTTA1eIVUtpj+eA7MeYZjJvl8lsRclMWMnaPGznfcW/drLiyQsNXTUF9Mr8WDr95Oci66OYrC4qG900dubpCp3Yb2bHct7vM8VFLWLPUtBIwkE6ELzMeLZeBCNwvp0ovNIBD0ko2GCE0vkTLTpOJR+rrnyHoC+35pWkXHrKCeyW+tH3cs/DmWJvqYT62Rz6dZGptgKefCs90w4HyeXK7wmVxuh33afAQDduLDHQxeiWOahbR1jCUxAkFKlwXMXB9iKGaSzecxY4NMJ6y46wsjorAbVFszJBYWSaXXSCfmOX/iKRoHE+XXscVDeGaSLiPJUGsrw6Wj9PZoBwpfP85E9zRLZpq1bP4AdVAF59/mI+i3Ex/sYPBK8XxF+widn2Axa2XHNm4fKiurO79w6NbyVXqKdUlldZIXa6yPjuEYCTNNamma7lAfU/EcNsDdEsRjDtNxYZ54Kk06tcR0aJCY1UvAawOqcNis2J/rpdeTIdp3lrbQEEs8R+9khI3Yz37bkDJ75rsFT3MLnkyU7vPRO+3p8LcnKhpZWM5B88wyt978AZNdBsnB84xtlMUqK1Zy5Lae1vw62RxYbJt5ulc9kk3GWUyaxKODhM620Rc1MdpHmQzv9gK5skzBe64LT3qCoWh61y3z8TG6p5dImSaJ2AShvhjUt9CwV+DHWkWV1Yana4AGFhg820ZbX5SMu4vx8eBdL4Pa5sgkBk9x7EQrg1cSpNfSpK5MMJe04vK47vqe7vBllm+9ybWLLdiW+uiLljRm6XkGX4xhC1zk2pu3ePMHk7Q7Vhjs22x3rFbLtkHG3Po6WC175ms+HiW6UkOgt5fjThtYqnH7B+j315SMdK2kvFuostmwGg0MdLkwJ85ztq2bsRUb/pfGGfBu1D55zPh14skVosMhzrZ1cylpL98mv0h0YRVXsL/4AjMLDk8zkbAX285Dp/F0jhJ2moy9OMfW0nGQ/iQAa/N0nDjBqdA0cTPNmhknOrVItqaW2m27ENulY42FqRhZTxcDQU8h4G7U0flSF547VVyl+QdYHNRUAVYr1kyMwdB02ahv8otEFzO4fJsjqR1eH+5sjLnFbOV9/VyG2NB5onGTtbUsefa+/yhVeXu0RztucRO+vLzte16WizNitlPt7SXSYic+NMiV4j3+ga4Xh5/+SAPW2CBj8f3Ui7uwVGGzQn6baQW5XB5sNiyAuRAlbvESjgRwV1vAZnC8J0JLhUvjWKuqIJe9+/5hPUcOK9ZDfH+oiPxxuC9r0lY5ik9js5s3y5badsYnX2DzGViGuTPH6L6zyI6Hcz+4xbnSHd2+xMlvDh+gYyyV2AjUNjc3c+rUKWZmZgA+JgFaILvKaumj0EyGLFasB3xDXC4Z39LhihNPgrfWhWU6TXphilhggMjVyyTiCVaWYixcj+1a/myeepyrcV4sC9zW4zFMForBIovLjVFVg2f8Br7SjrC1CmtuFYcF9lj9CAAjOMNsV23JCKgci+efom3eistVQyYxzErp90vHWTFzeMsywSSeKA0o51lZSrDe4MJlg8S2s0NzZFfLh9bkcznyJb2oXD4PVmtFN4Q1bgPbapx4WQAwzdL0RPHflgq2X2NxMQWn3bgsUfZc+tLixO2A5NRi2dP17EocM+epINWbcpkkibK5daskVjLYag1qoHiTt042WzqnM08uny1/sp9jx9Fse+aRxYnbgGQ0XrbPfDJGIhPA5bRDvHDOctlsyQsL8pDLkSt7QpYjX77gAJ7nasnHz5ePishm7n6wliudMpqHHOwcI9lmv+kF5uLthP1ebLEr5OobqLclGFvYvBV0tnQSqIoRKq6ht9Put70W93keKilrGbeB9a5tVllaWd3s4FucuA0rLtckNwMlm1mtVFkzGDUW9vMWCaOCY1ZUz1Qa58tlyJTd5GTJZcF+wMrX4nJjYBJdLB9jm47HMa1eag24kgTIkTEzJTc+OdbXSwpVIsp03Ed48hqeRJyVlTix+QWWtiwYaPM2468xmWo6y/SWCnyvdqDwdcvL+r7roArOvwU3htVkKl5eH6euHCQYuL1Kyg1APtZH08nt7irzZIt5W3mdtKWOTcwzkQCwUe86itUdZvZmZ8kWVqxVVkzDUTgeUEWcjrYLbMyKjccz2F67SHPATXQwUUEbsjOLa698r8Y4aieTWCyv/9ZWytpTi6eH2fEXOHqnEs+RWQhxLFT6sq4MC91NJGx2HJ4G2jsnmXS00TqcIL9xM3/Xq8CLQYZsvrJ6JJ0nMR2ibbrk7/E4qdwMs11BfGNx5rM2/OM3GKgvaXFyKww1nmLCBIunnU5vjrm2vaa45zDj5W1ONr5IkjAuY6+FOwvf15Ls40xovjjaPs6KaWP21RZO108Rill3TSeAvbaBljo3Rk0NdoeB66iVrHl3vZS8dJamBTt2o46W9gEmR6tobSsEYau9/UwO1JOOnmdwIUnW6sIbbKd3MgJNZ5lPFwM6lruDS4XgTLGOsniJXIvgs5f0ym5P0do4SCKfYiIUwj7Qy8CrDbwE5FYXGRuewx8+ysZ71fYu78nCL6vWWWg7c2dZiHh8hXX7awwEG3DEJkhjMn/hbNl61PH4Clnba/QGfThi06TJEx88y3lrP+cir9FiBdZvszA8RKy9Hcv61g5gYWmnSIuN2PkOJlJbzu+B+pOlmVmDN9iC2+XgqKMGh2Fgtyax2Ni6NsiO6cjG+jgz2Eukc5JrXUAuw8rcEGO5XlqyJTvZM/8MAqMX6XWZDHVMYIR76Y0EMNuiWJpH6DXmabsQIx6NsTrpw++cYDhl4Gtwkbk+TDwPltpK+/pb+iWwr/uPitujvdrxfJJLZ5uY265Zz6e3mREDNncno/0+mOsoeyFdRddLqeo6esZ78ayO0XY+tnmsSupFdqvPisHcbYbClgWS01FCZ21E+sO8/INeIEcmq/zrgQAAIABJREFUHmVoKkevN8t6nl2v7+ROweedgswiIvt0X4K065lCw2izbT6Hy9+eZ/B8AhtWPMFeGo5u/dQ2Lw5bTWy/+L3cM1sDtcDHI0B7P1jvDolZrWx2BtNXCJ2I465/Dk+dh/rmflo6TabatozEusOCx+smG58oWzupur4elxmnu3TIQS5JtC1EdEtgJpdbr3gdudW5bpoWy7sE2XShw1LcWWU7+pNWGKG26YAR/z9mllrq3BZWhuL3dh2tbfe7RmwuTrjXR51tCfx1WBb7uLN0nCNAV9AgMRwitmtjsP21+JG6q37JER9qpW/rSJhcrnDjtNesvYMc8x7UMx+1/V2BJtG2Yyx6vNTXeairDRJpaSc1dIbWkmiszW4lby5uGQletFc7cM/scf5ri8e+14etxNY8yKZJ3bOn4Vvr2A0WIMf6Yh+nhrc+lsyRy2QAK5lMjlxmsXxadT5O3MzhcziwVPRIs7JU7r7B7lvkV8Y42xQtL7/ZrS+wzbNmplgjRSKxRIoZZoMt1I+FiGXTpLM2agwbLJWEQ6wGNfYcq6urgJM9y9EOVhMJMngwHEAqS6yvifI4fJ7MKoCTlnCAqth5hg/0wkUrFV0+uQyZbA4znigL/uTNBKn1luJU+7Vd0lnN8cjLDNRlWVxYJL6wiGmmcYUnadnmcPk1k9SaSSoRJ25aee3lIM3uOS4k7PiCPqyxEB2DG1PZUyRW0theGycYcDI/nMI0V6HehcsCm1lvweV0QHqF1TxAnKEzTVwqO3BmM1adjjHYGmOo2qDGus5qeg3r8RGCmdXiS48zFZX31XSG3HqaePlTA1IJEwIGxVj9NtaIJ0wIuDa3yZtc6T7FlcFqDLuVzGqarK2ZyXCalS1BdsfxAcbDLpKDZzh/ZfcR1vtlcQeZHG/HnlpgYXGJVxZM0hY/kYG7h2Tvno4sqWiIb8714aixQ8YknXXSeRnMxSR58pXlnytAcz0sdHQwEctiWbVxcTLMSM8680frqVmNFh5IJ+aImQG8Pidj+PAZqyycL3mAfNA2eNf7jwNkcEU26qfKWIwAkdEW7Evnab2wVHLN5yu8XjZ+XViGp4E5Ojomyh+aVlQv5nepJ9KYabA7DGykStJYg2FYyayYdwYWZOMTtD0/hc1Rgz23irkGdf2vkTOThX5kfpfrO51mlTpcBlwpaTsthgsHaaK3P6YdLhH5xLgvyx1kE7dZBapq66nfqETXEsTm55lfMMlZATKYZb2KbV4cNhy7a2qN3HulSx/8MQRod2oarUYdZcsH2uqoc4K5UlgLyVJdGAmUiEWZuBCi9ZutTKVraQjsMGXQ4sFbmydR9hIGG546J6vx2J1gUf52AhMHhrGOaZp3ftZtBndmhq/nyFGFrXQqj92Bo+Q+Mb9mkkqlyn7SWYAs5u0Mdnd9+fpK1bW47lqT1qDeU/6il9o6N1WrSZIf0ROR1YRJtsaDp6wv7qCuOcjxbeY8br99NfX1TjAThdFOe+VfPkUiDa768pek2TyeA6xJW0tdWYDNoK7WXnzpxL2xZx7lUyTMu7+PxeXFbc+QTO1jmOZWRh0eW4LYNtPsPpQd9puNzbOU99Dg9+Hz5Fma31wDrrreR31VFZ7ea3em4b15sQG71UPv/yh5Kd621+L+VVLWzIRJ7q5tDOrcJet8FsubUVtDpuSaN3N2DMO6cyW1g0qOWVE9c0jyyQQmBp768gmUhsdDTc5kpdLIus2B211DNn6F6PAFzrae4OxCDk/Ad2cdQ4D0dBvPNg5vO3J4r3ZgOxXVQWVfeO/zXzhfW/PEguEN0uy9N2uVV1RWqWy5gwPXSW4/wUAdDrIkb2eocrmxr5bkySo4jBqs5IEs8cUkGJ7yl/lZPHgMK6vpQhB0v21Iqb3zfaM9raO2dFcOD7VGWYOMuaU9ThUaZCx1YSYne8qW8YCN56gbo9jiXF/J4fb5ytYQd/h8eEiwFM9XWI84CERmGG8uf6OpzeXCTgZzY3B4ektaUyZrecDpw+eyYve9xP/YOO9vDlBvrcI3+ubmi/MAsGJ4trShdXU4MVm56yLYmvEJ4skchttdNo3aYrhxWrOsFqdN7ZhOiwdfnZ34YCtnLwwzPX+FpUQOu63knFQfp2dynM4t66LnN2Z8WAFs2K1WcrktLw7Lr5PNWbHaqrAA6cU4qzYPvtIFcy21HK+vIbOy0b/Lkt5aBsy14mkJMHJ5hrDHQn7NxEyvkceBr8FDPr5QnPVUWXlPxxOsWp14XGUdPJxuAzLJQgDMdpyemckt392Gy1UDGbMYIHQTnLxcKCvZNUwzTTYPzgYf7tU4sZJgk62uh/GBOjJjHXREUzuuXX7Q/qTh9eHKzhE6083wRJQrsTim1YZtS39s93RYqAvPcnnEjyOfJW2apLNg8QTw1iS5XnxzVCX5Z7FasObW75TDfGqajtAcNLxElyfD9fmNh8sp5heS1HgD+Bq8GOY888V8+zBt8H7uP/bdHu140H0sd+A4zsB4GFdykLbzV+66N6/segEsBoHRUVrsS5xvu1AWhwUqqxfZpZ4oXlNWTwOlK1ng9OMzsnf6iLbj/Vye7cdry5NNm5hrebDV01BvIxHbWAZt5+s7n1wkka3B21C6Hr4Nr9+D1Vzc8WV5IiKVui9B2nwiSnQlB/YGwr3+ksCRDU9XmIYayCUXth/lIodiI1D7iQrQZtOs52y4fT7q3EbxxiFPJpMB4zlavB6c1SXdG0stpyNBvG4Dw32cztFz1OdjTCykAQu17aNMXhwg6HXicBi4/QHqjRxmstBRNvwRZmcjbLxbxOLy4rGsFBfO3ziGh+dqsyQWk5u/W1tgYi6Dp3OUHr8Hp2HgPt7JS6MReltchfuGtQSJVTverjDH3QZOj5/wQAuVvackTzwaZcUeINIbwOMsfr+XmrdZFyyH0fwS4eNuDMOJtzlCf4ONxemp4vikarw9M8yON+O867MHY3EHGZ+doafYY8ovXmIqadA+0k+gzolhePD3RIh0eanZZt3FfOwSU0kH7ZHi9k4Px8OFjvPcpYXCKIA9889k7lIMvL1EOr24DQO3t5PI6dryg9k8dE7OMtm5y1p+63Z8/T34PU4MZx2B/ggthsnU1IcYebrluHvnkUl0YoGct5fRzuO4DQNnXTMD/QHs8QmmDzQiqsCo91CT2jKy5x7Ycb/5RaLXs3jaO6nPLjK3WDLOdqGPkydPlv009V1nPbfCpdYmzl4qXGfbXosHUElZyy9eImoahW08hW0C/b34qkpv+k3mxgrlbTR8HI9RKJM9oyNEwoG9XzpzVxZVcMxK6pn7ZS1DxlqLL1CHx9hmJbvsAhPR0rQ58fj7ibS7MKMTe4yS3mTzdDE6OU5/swenw4HhaSDgtrNuJktWj7DgDo4zO3N3kKzw593age1VVAeVqeD8bzlfhuGkLtDLSCRIva34ss5t27jKVVZWN5Y7OHnXtXayqY2J4ho6ldRJcxOx8jrJ20wk0kuL20qWPImJCRZtDfSPFvPfWUdgYITR/k7q7IW0pOfHWMDHwMVOjnucOD3H6bw4gM+2yPRUosK07GLPfM8Tn54gbmugP9JMXbE9DQ8EMCqcrJJPJlk3XqB3NEygzo3T6cYb6GG03UVmIUq8GEyITUQxXe1E+gPUuZ14/D2MdrpZjU4wtwaV1SNpVpJWPF0RIs1e3E43dYEeLna6ycxN7X1tmVOE7jrvQ8Rz6yy+2ERT90LJtZXD4mknEiy2occ7GT1XTz42xS6XT1GWhbEo6fowoz1+6txO3N4gkdEWapJTTO1Vd+dNzAy4GgKbZae/F3/pA9O1FKbFTUv/KJ3+OtxOJx5vM5FICzXJBeZX8kCKhYUV7L4wkaAXj9PA6fbS3D9AoOY2sSvFB32pKcYWrfgGInR63TjdXoKj/TTYFhmbSOzd1qfjLK0ZBHoGaK5z43TXEegfpdOdYGxicy38Sso7iSkmFqsIRCIEvR6c7jr8PaP0PpcnNrFQCJhlE6SyTlr6Rwke9+B0evCHR+n1wuLUXDFIlmRxJY+nfYB+v6dQLoMjjLbXEBu7dGeMusUdZDzyAlXxMcbi4HK7cbvduN1OHGWV0F79yV2yJ7lKzu4h4NtsqyLt9VSVbLN3OvLEYytY68NEwsfxOJ14jncyGmmAuWHuzMavIP/yK1eIrdYQGOjB7zZwGG48rmKllMuRL2lBzYV5EjU+wv4aEnMLmwHIA7fBe99/lNp/e7SD4nIHd9X7J0/S1FeyH1sdPeMDeIkxNJHE5to4D26cjmJnpqLrxcHxgXHCngxzQ1Ok7Zv7cRvVxT53JfXi7tLzY8xlPYRHwxz3OHHXBYhEWnAkp7gUK4Zf44uYdh+9kSBet7NQr473Urc6wdBCBR2S/BITlxLYAxEizXW4nR6Od45yrj7Hwlj08GZ0icgfjfuy3AGkmOobov7iOTy+AWbr2jHNDNhduGqssL7Cpb6pLZWYga83Qm1Za7TO4tiF8hc1yX3ziQnObsgvMjy4QH97mFFvgr7n25jPgjkxyJirh2BkHG+0lW8W1/TKJS4xlqwnPN5OjTXH7cQCfWcGKTxszxdeJGLtJdj/Ml1VsJ4xiU910DddKIA2w8DhyFF8AS6GtxZ7KloWdLLU1uEmwWDZDUee+IU2OtJh2ttHeLmmCtZvk1g4T9vgxpShBGPdL+Lob2fg5QZyqwnmhyaIO8OVBVdSE3Schd5wO+Ov2mH9NosTY0RtA1vWpE1xafA6nvA4s0et5FaTLA210XfnZSFV2I8aGNU1VN2rlQBsjsKbXzfWdcqnmOhoI3euk2DkZXqrIJNcJNrRd2fduS1fjom2s+R6i9tbc2TMOHOh8wwvbWT+3vm3duU8Z6xhzrX3M3naSu52nInBMXKj7ZuHslRTYxg4MrYdJ+3m0nMMRu20R17GZYOMuchYR9/d67Xtx9bjVpBH2Vgfbee7CJ8+x2SLHXK3ScQGaRv8MB3Eajz1LszF7ns8i2G3/eaJz8dYfaEF6/xGAKMoa941Ddtiz5KninQyxcYLgLe7Fg+mgrKWTzF8poNsbxft469iJ0NyYYjBhSCRkqcia7HztBbPz0jAThUZkvEoob7tR3juqqJjVlLP3B/5+BiDU0cJt48y7hvixKnpLcfLEx9soyMXpqt9hIaaYt0z1saL0xUEPIqysT5CQ710tozw8rkqWF8luTTE2b4rZTemNoeBUQO2u9Y23Ksd2EkldVC5vc9/4XyFsmHau0ZosG/Ux2fpmy8mZoc2rmIVltWKljuooE5ai50v1EntG3XSKslYH2c23pCejhJqzdF5LkjvZDt2cqyaS4ydfZHpjUoru0RfW4iucDtdIy3YrVlWE9cZbBvmTjO17zak7Ivsne9mlI42C73hFiIvn8Oau83i2CBTllH8leT72jyhMxDuaiEYCVBTBeurSeLRDgaHN6/FfGKYjg4Ih9sZbbBD5jbx+RB9g5sP/CqpR1ITZ2jjHJ0t/Uyes5LLmMSjIQbHKrju82uYqS2F3+IiB2TTSVJlU+BzxMeGML29jLfXYM2tkljo48zglYoCQ/nEMGc6oLernUiDHWsuQ3JpiLYXp9m7+UwxFurD3ttO/2RX8dgTRBMuGu5sYzLd1kY+3EVz1ygtditkbpNYHKJtaLokvzpoy3XRHuhlvN2OlXVWk0tMdAwxcacBWuNK9xmqwr0E+yc5bc2xmowx2DbIfEWNo0m04yyW3k5aIi9zzrrOajLGcNsgpe8wq6i8k2Y+dAbC5wj2jtBus5JdjTP/7VaG7lRcaaKhNgh3Eewdp6sKMrfjXD/fyuCVjW3ypIbP0EEvXV3jvGqH9dUEC32l21jwBoPUVgH157hYX/qd1lnoeJZQMdC1d39yZ9krfYRcA4SL6cgkF5maimF0bYzbriwd+fggbefzhNt7GW+pKlxDCyHaBkvXTq4g//JxhtpC5MLtdI03YLfmWDVTxAfPMOYMMxDpZ6XpLFfSQPo6c/FOBjxx5sqeThy0Dd7r/mNrZ3z/7dFOx61kuYNq32leOGoFfAxM+sr+tvpKKycuxMlXcr04A5z21WAFXnjpZV4o3VFyiBONheWqKqkXd5VdYrDtPPS20zveUqgzF8c421ey3vvaFUJnrPSeK9QnhW2mCttU2CExpzs4Sy/h06NMnoPcaoKFvjYGK33qLCKyiwcMw/jDTn90OBy8/fbbB965xVFHS9dp/B43R+1WcuurJOMLTI2NcWWjFrR4idwYxVe13R6KLxcrmx5r0Dn7Gqddq7zSdIIL+77blY/Ko48++qHKz71jwRu5QcQ2yFNt8/donU0HzTOv4Vs4wanpzU6aO3yZcWOC59vmP/L1lC0Wy5Y3gLsJX57EE2ukcVhPOqQCNj/jV4OYbd9k8F6ug3a/9gvsdC1+otj8jN8YoH6bJzK55CWaGvUCzQ/vfrQDJYwgs7N+4q33o4wXWLwRrkV82O8qJzlWX2kr3iyLiIiIiMhhe/TRR0mn974//dznPsevf/3rO/+/TyNpC/LpJSZCS+z6vt18jNDT/5FQxXs1GW78jwx/6NSJfAjV9TxnmMTjpRedgcdTQ2rL260/Es4gkxf9ZC4NMxZbIWOtwRMI469ZJRq7Vyulyh87i6ceVzbBRHLvbT8O+wV2uBY/YbIx+ppObj+dPZ/R1LmPOUu1gcfvxSDN1H2sbvPxIc40Xdr+bxlTAVoRERERkU+4+zqSVv60/XGPpP24seEMhDnX7MV9tKrwAgQzzsLYIMOxT3DwSkTknrh/7YARnGU2aGFxLERoeoeX7IiIiIiIyJ+Mg46kVZBW7puPT5BWRERERERERETk/jtokPbB+5koEREREREREREREdmdgrQiIiIiIiIiIiIih0hBWhEREREREREREZFDpCCtiIiIiIiIiIiIyCFSkFZERERERERERETkEClIKyIiIiIiIiIiInKIFKQVEREREREREREROUQK0oqIiIiIiIiIiIgcIgVpRURERERERERERA6RgrQiIiIiIiIiIiIih0hBWhEREREREREREZFDtGuQ9oMPPvio0iEiIiIiIiIiIiLyifXAAw8cOJ66a5D297//PUeOHDnQjkVERERERERERET+VDz44IO89957B/vsbn985513sFgsB9qxiIiIiIiIiIiIyJ+Kz3zmM7zzzjsH+uyuQdrf/e53PPDAA3z2s5/lwQe1fK2IiIiIiIiIiIjIhgceeIBPfepTVFVV8etf/5pcLneg/ey5lsGvfvUrLBYLNpuNI0eO8KlPfepAB5I/Pe+99x6PPvroYSdDRERERERERETkvvjggw947733WFtbO/BSB1BBkBYgn8+ztrZ24IOIiIiIiIiIiIiIyPa0hoGIiIiIiIiIiIjIIVKQVkREREREREREROQQKUgrIiIiIiIiIiIicogUpBURERERERERERE5RArSioiIiIiIiIiIiBwiBWlFREREREREREREDpGCtCIiIiIiIiIiIiKHSEFaERERERERERERkUOkIK2IiIiIiIiIiIjIIVKQVkREREREREREROQQKUgrIiIiIiIiIiIicogUpBURERERERERERE5RArSioiIiIiIiIiIiBwiBWlFREREREREREREDpGCtCIiIiIiIiIiIiKHSEFaERERERERERERkUOkIK2IiIiIiIiIiIjIIVKQVkREREREREREROQQKUgrIiIiIiIiIiIicogUpBURERERERERERE5RArSioiIiIiIiIiIiBwiBWlFREREREREREREDpGCtCIiIiIiIiIiIiKHSEFaERERERERERERkUOkIK2IiIiIiIiIiIjIITpyb3Zj4eRkksgzJb/KrfOrn/2Q2e9cIPL66r05jGzvz/6Gzraj/OQf/5FrmS1/e+hJgueO8c5MP6/89P4m40t/822Cj7/OSxNv8M79PdShePTpM4S+8b+V/OY9fvfvv+SnN7/P/M2f8+6HPcBXXqD71BHm+2f48fsfdmciIiIiIiIiIvJJcY+CtAA5cj/8Dn/X/QNygLXqy3yt6Sz/cPGfsP7Xb9D/o/y9O5TIIXkvm+DVS1f5+fsAD/H5//AM/r/5Fi9kh/nuj/8YQ9MiIiIiIiIiInK/3cMgLbD+K352+zaFcOxt3vrRL6j58+/R2PRXfOdHr/NJD9P+/uEH+U3gi+S/9jn+8JlC1lmX1vhs9Bd86ncfHHLq5KPxO97JvM3bxf+9/carXDXO8cITX+HIj/8VDYAVEREREREREZH9urdB2rv8jB/9bJ3/44tfpArIYOOrTT30tD7Dn3/xMay5X/CTH0zyne5J/iULWP4TF/6//5svX/sOv/irNk78Obz29/+Zf3jdWtnnXuvmZ391lhN//hjWX/2E2QshXn3sLD1tz/DnX7Sy/pPX+E5HN6/eLoSLLUf/lp7+sxz72pd5jHV+8ZPX+E7oAv98e/tw8jut/zv5//Ro2e9yddXwAFT907/d36y8h47Y/4Jj33gOt/EoD73/Dpmf/4Tr89d46+2NEOOjfPWYn+fcX8L++Yd5/9//jZ++cY35183NKf2PGHzd/w2eNuzYjrzLv/34Kjff23qkRzCe/gbHnv4Kjz9yhHff/iXmGyVLAzz6NGc6n+CX127z2NNPcPQRk+n+Gd7Cztf+xs8z7i/x2MPwu1+ZvPG9V7n204/nSNW7A7OPYHz9Gxx7svC933/nl7z1+vf53hulSyI8ylf/xs/zboPHbO/z77ff5Htvlu7iSYLfPsa7r7zIzFubR3j06/8nnU//ku++9CqmIsIiIiIiIiIiIn8U7vOLwx7ji1+0klv/FeuA7b/08E89z5B7tZv/+tdP8td/P8IvvvYPRHq+juXOZ6z81Ym/JTd5hr9+8htc+GG+4s997cTfsvqdv+PJJ79B6IdVNI7+v4z+lx9x4e+epPY/n+E1TtDf34gdgK9ydjTCsdyrhP7uSZ786zNMrh8jEjnF0R2+zdYA7ebvP3evMuz+e+QveOG0ny/96jozwy/x0virvPH+n/PCaT9fKYbs/+zY3/PCk0f4n9+7xEsX/hvj3/slj3lP4f/qQ8Wd/BnH/v5bfP2R23zvu8NEhme4+bsneN79CJ++c6AjfOnY33Pq6SP8eP4Swy8N80/Xf86j3m/xradL8vHTj+N+4mHefOUfufDiK/z0ffjSsb/H/x/e4QffHebChWFm3jzCky/4+YuH+Jg5gv0v/Dz/lXd56423isHaI3zp2Gm+9fVHML93ieHhYb579efYjwX51tftdz5nfPM0L7iP8JP5cSL/7R955c2H+frzX+HhjV2/k+ANE4wnvsrm17bjdtt5J/GGArQiIiIiIiIiIn9E7t9IWksNf3mqn7avrXPtzA/JA/n/3s03/rqK9dVMYemD1VeZvNbGsb/6S77I69wGIMfPXrtAz6s/2txXRZ+DX1wbYfxfMkCGf568xtnGE/xwfIYfZfLA60y++hNOtX6VL1sgw2N88TH4xT9f4/W3Cp+ZPPPXzOSz+16WYWPpg0P16cd5pmuAZ7b94+9IFP/1Z08/h/HL7zH8/R8XX+71Dm+8Ms+Xvv0CT371CD/98fv8r2v/yEuvwzvvFiKB77wV441fPsHXjcfgrZ9z5CvP8KT9l8SGv8+P3wZ4m7e//yqfPxri+Y1DPvRVvv7kQyS+O8PNnxd/9+Pv84rtS3Q++SR/dvMa/wvgvSxvfe9V/nVjG47w6Ocf4f1f/YS3fv427wLm69/lxZvv8/7HIDD5adtf8q3/64nifz7Np/kd/7b0Ct97qzhG9qGv8vUnCwHaa28Vcvjtt7/PzMOP8+1jz/HVm6/w1pG/4OtPPMRPX53hWvFzb//rq3z/8W/T9uTGkd7lrTd+iv/kE3z1oR/zr+8Cf/YET9jfJvH//BwREREREREREfnjcQ+ji1asx0ZJ3h7d/NX6z7h24QwX/nu2+Is8PPZXnGr6S/7Tl7/IY1/8Il/+8pex/sKKtWRP66u/2rLvSj6Xu+tzuVyOXC5f9n+sxc/kf8jk5E/4p3/4Hq//7Q/51x/+C6//92u89i9Z9uuB3/1+35+5937Fv0xPc3Nr1j38BCfvRP4e4vHHH+Nhw09n9zdKNjrCkYc/Tebzj0BxtdUjX/oLvv6VL/H45x/j0c8/xuOPf5p3f1koLo88/hhH3v6f3H679EBvY/7bv/PeY8X/PvYlHn/483zlW924Szc78jCffv9tPg+FIC3/P3v3H9T2eeD7/r22I8WxJdspipOgpjGqE6NpHGjToNM2cE5i2GmAmx5gJgHf24PSk0FpspC7XWnO7qDd7Yg5pyPOzBa22yPm7Aa6u8bNjpXZHOPcvcjeLiQnF7nboKap5MQjuXFE/UPUsUVsRwr23j8E5ocxxjYGO/68ZphJ0Pf7fJ/voy9+pM/3eZ7vJ4ydnb7BOAff2s/J7c/wRy89yqHEhxw8+A7R2FFuhMUOcg8O28cRAFZhumcrpZXbcZle4UevxPjEsol7VqV4a9bSDB8nDjK66st8fj3EVn8eCykGD30yY5sjhz7k7KNTf5LjB98mNr6drYVrGR7+mLu/bGf9kf3sH73+5ykiIiIiIiIiIktnEUPaDJmhDup9A2QAMmmSiRGmR54FDd3s9NpJ9u8mNNhHXzJOprSNrrmHf17zfvPLEgnU8lh/CWVlpZSWlNPS00JLv5v6lj5G5tjDEDk555IHhuGTc2y9xD4d55PUKKOzA7zbTzI+fa3YVZ9yNhbkR//v7NGY44x//DFwO4W1L/L05jFi78Q49M5BUqmPuKfSRekVVWgVfHqEt37y9+yflXuPj3/CJ3PvBMAnh17nR/99P5s2P8DmBzZR/JSLJ39/Pz8JvM6h+XZcEmf5eHSUyWYeHT3Kh5+Y+KPtpWxdG2P/FZR02T++8YPsj37Md75sZ+3wEb5sX8+Hg+9wA1xtIiIiIiIiIiKyiBZ3nn74IeSuAAAgAElEQVQ6STQWu8RyAXk4qhzQ30x9S2hiGwOlVZYZo2gXb7/LMVFQZCMTDdPXHaavG0xVAd5od1KR10f3HKMV13Z/wMdO+PRBE/+2eiUAxrd+x5pXktdUk6XzCUeOnGT1A5/HdPJXTMW069m0eQMfffwxsImthWs59NoPeeVXk+sL5LHZdBtMjNL9+EiKT9ZvomA9HL2QGOax6b4N3DY5KjZ1iBRbuSdvnJMfTo0qvf3uzdwz/iGH5hkWe/v6u1k7fpRDvxrl0K/egtsf5Tv/5Um+tqmfQ7EbYM2DWcbHxviEe7j9diB1iCPjW9m8eS1vDU+d5PqCzeSNH2HfSeDjD0kxe5tV3LP586yeGKM76cP9UU66itn60N3Ybz/EvnduhPHEIiIiIiIiIiKymJZwMdU0yWQas6OW7aVJBpJGbGUuPBXmC+Hf4u53GXnVeHu8WPtbaQ0MkTTaqK4txpgaIJ6ee5eVZ8+z7seHruGgy+/o4ADvf/kpnt5+ktf2RUmNb2BT2VM8VTjG6z/6G/afTPHRSfjylx9lc2ri9a9V8OVpA4jHD+7jrSMv8vj/+X9w9rW3OHR2NZu+9iSPrj3Lp5Mh7Scx/nn/E3yncjtPjr/O/g/HWHXPo1Q+9TU2RH/CD//XIeaOW9fz5addPM5bBF/bz4ef3M49Wx/iHkbZn7oRAtrVrM1bz/pxgFXcvuHzPFrxKOtP7uf9UYAYg/vLpp33WVZ//ms8WfF5jgz+iNg4MP4r/nl/Gd+pfJqKT/rZf+QsGx54gsoHVvHp7MMd3c/bo4/y+FMWOBTkV8s+klhERERERERERBbbEoa0WQZ9Tfjb23B17cFLmvjQDrp3W/E6rsd+lzHai7s5n3aPh569FoyZNPHhflqbWhm80ieH3Uw+HmZHYJyKyieodVVgYpyPjhyk/yevsf8kwCj//NMgtz/1+zztqmTV+Ed8+PY+3v7wHr58oZBRBn/yE8afquT3v1OCiTEOv72H194uY/vnJ7cZ58PX/5qfnKyk4vf/E49uWA1jKQ698wp/3X+pgBbgJG+98grrn/p9nnKVYbrtU8aOHGL/jr+n/wZYi/U201ae+b+nVtn99OxHjB7az45XJh6Exjgf9vfwk08mz3sV4x8dIdb/N+y5sJhsrm12jNdS+dR3KDON81FiP6/tOctTT5tmHXGUd94+wuOVG/jV/oPztJuIiIiIiIiIiNysfm/Tpk3/ttyVEJFLW/vod/ij0hR/89//F7NXEhYRERERERERkZvPunXrOHXq1IX/X8KRtCJyRdau527LAzxR+nlG97+mgFZERERERERE5DNKIa3IDWrT4/+Z//TlVYzGXuOngzfAWg8iIiIiIiIiInJdaLkDERERERERERERkSU0e7mDFctYFxEREREREREREZFbnkJaERERERERERERkWWkkFZERERERERERERkGSmkFREREREREREREVlGCmlFRERERERERERElpFCWhEREREREREREZFlpJBWREREREREREREZBkppBURERERERERERFZRqsWo5CWzXcsRjE3tY6DZ5a7CiIiIiIiIiIiInITWpyQ9oG1i1HMTU0hrYiIiIiIiIiIiFwNLXcgIiIiIiIiIiIisowWZSRtwZ7ji1HMoli3bh2nTp1a7mqIiIhcFfVjIiJys1IfJiIit5rF7Ps0klZERERERERERERkGSmkFREREREREREREVlGCmlFRERERERERERElpFCWhEREREREREREZFlpJBWREREREREREREZBkppBURERERERERERFZRgppRURERERERERERJbRqqU82Jo1a9iyZQt5eXmsXLnyivY9d+4cqVSKAwcOcObMmetUQxEREREREREREZGltWQh7dq1a3n88cf5gz/4AywWC2az+Yr2T6fTHD9+nL/8y79k3759CmpFRERERERERETkM2FJljtYs2YNjz/+OD/84Q+x2WxXHNACmM1mvvjFL9LR0cG2bdu44447rkNNRURERERERERERJbWkoS0W7Zs4YUXXli08r773e+yZcuWRStPREREREREREREZLksSUhrsVjYuHHjopW3ceNG7rrrrkUrT0RERERERERERGS5LElIu2LFiqta4uBS1q1bx4oVS1L1a5dXRSAcIdRagmHZKpFPQ3eYSNBF4TxbGco7iMS6qV2+ioqIyA0tjxJnB32DEWKJGJFQL76qgivu3wwFVfiCYRKJMP7Sa+10CnD1xQi1Fi1w+zxKnH56J84hFu4j4Colb3Yd88tp7Q4RjiWIxcL0dbgomb3RZRXRGkqQSMz6Cfu5mtMucPYSSSQY9E3/TGGgtjtGuKP8su/DvO1uKqTBH2QwEiMRizAY9NNQZLrySs4jv9RFR3CQSCxBLDJIsMPJRYfIK8HV0XeZepgocnYQvOrr0ERRg5/eUIRYLEZkMDjnNbDQNskvdRPoCxOLxYiFQ3S7y8mfsYGL4OxrIJEg1l07o855Jc6J9smVE/TP0T755bgDfYRjMRKxMKHuVqoKpl0NRT4GY0Fc+VyGgfxSN92DMRKxAFVXeD3mlcx8L3t9tRTOLmOyrpEYsUiYUK+P2os2WkD7iYiIiNwibuikM51OU1lZSUFBAbt27Vru6lyddJzB/gEGwkmyi1ZoIe5QjJB7vsh1RiWIDw4wMBQltWh1EBGRW02hq4uuFhvRQDP1NY209kNFew9t5QsN80wUNQTYs6cdRya1DH2SgUJXFz2eYlLdbhora2j0D2N1ddLlLJi2WQnenk7qzAP4Giupaeogbm+hq8tJwaULn+NwFqyWDAO+SrZt2zb1U+9n6Eo/FORV4XEVc3W3vC/X7vnUdvbgLU7S7W6kptFNb9qBt6eT2kVKywwlPnq6XFijAdz1ldQ0B0jaPXR11k4L5ApxdfXgskXpaKphW00z3SkH3q52aqclqAUNnRPvYTM1lfVT12Hpwq7DAmcXPV4Hmf5WGuvraQ7Esbq66GktmhaaLqxNDCWt9HTVYR7y01RfT5N/CMv2Tnqm3Zw3WPOxZIb5HzXbZlwHle7+C58NDUVueno82FO9uBvraWztJVnsoadn2jVnKKF18rqsr6Gy0Ue/sZr2Hi8lVxKyGgqo9b/Knq5qjKmr+CssdNHV5cIa7aCpppJ6dy/psjZ62qumgm5TKb6dnWy3Rgm466lv8tGfKaPtKtpPRERE5FaxarkrcCnpdJr6+npisRgAPp+Purq6Za7VVcjG6PW2LHMlxgh3ewgvcy1EROQmZqqixWVj2LcNT3AUgEikGWyv4q2twBQKMnbZQmyUV5kZclfii9by6p6l7tftVFXZiL5cT0t37vMFMR++ojJ6amsp7G4nBuTXtVBnGaK1vo2+UYAYLc359L3qoqV8By2hBSasFisWY4poNE4icS23ak2UejyUpXaxK1mH44r3n7/dDaUttDiS+Ctb6E7kfhcZzpC/p53aigKCk7+8agYctWWYh/w0ensZASCGu6OU/e21lOUF6R0FCquosqfY3dhKMJwFYiTcfkreaKe2Io9g7ygYSnC6HKR21NPcHSELxGJNYNtLe8t2AoMB5q2toQSn00FqVz1N7eFcSBqJEM1Y2OttoTrgJDi60DbJZ3vLdoy7m2hqG8xd/5EIcbONV521lPnDhLLkroNMkkg0wdyXgYkK13Zs8Q4qXZP1jxCOQ3CPC1fpDjyDWQxlDVRbhwnUt1+4LmNNRuz7PTSU+Qgv+Loso8oWxVfjo7+4i/32he02qai2FntyBzXeIDGAWIxmCnmjs5YyUx/BMcirdlFnHsJX76F3JHc+keEkxj07cTmLCLZFFt5+IiIiIreIG3Ik7eyAFqC2tva6Hc9U201s0E9trZ++cIxELEY41E3r9KlzBS76Yn34XD56ByMkLiwLkE+pO5Cb+jkxZa7DWTI1ksBQhG8wRtA5NWzAVFiLrzdEOHap6V8GCqpa6e4LE4sliEVCU9PITA30JvbwvM2I7fk9JBKD+C47fMJAeUdk5rQ6QwFVvm5C4RiJRIzBoI8Ki/Fam1JERJZFPqWuwNQyBINB/M4ipo8rnNH3TEyTLp82TRpTCc6Jqd2xWITBvm7c5VN9l6GsCkdmgN7do9NKHaXPVUqJa1pAO62cRCzCYF8AV+lkrxilo7EBb1/iErNL5un/JkxNCc+9HnDaWfik/AjtVUXUtsdm/DYz4/9MOMqLyQwF6Z9+qrEgfXEzxaXFF/rSy/XnBmsBFlKMJK8taTIUteCtzrDL103skltZqPYFLyzPMHMa/HztbqC43IFlKMju6elmdhBveQkNCwpoTRQ2+OkNhWcsZVBy4Y3JMugppcQ5GdBOyGQuLooMmUx2xjYztrKX47Ak6Q9Gpp3LGP3BITL2UhyXW5LCaMNmSRMdHJ7RFqNDg8SNxZQWG1hwm+SVUV6cYqB3aMYNipHuBkpKPRcCRqvVAqkUqUteBhYKrUZSw8Mkp/86McRw0oyjPHfNZYc6aKpvZdfo7P0v/vxmKnYRCE39e9DhLJn6OxnZQVOth2DsErdV8ktxByaWnEhMfSaeFO92U98837VowFZohWSYoelveDbK4HAaq8ORGx28wPYTERERuVXccCHtXAFtc3Mzf/qnf3p9D2ypxlObpqP+UbY8vI3mXqhu78I7PQA12qmuMtPnruHRx5rZnTVQ0tpD13YLQ/4mKisraeqIYmvpocddNPc0rfxaOnu8FMcDNNdsY1u9m950GW1dbUzOFjWVt9PTXo1xoJX6yseoaZ6cRlaOaayXxodreDmeIf5yDQ9v2YYvfKWfYk2UtvXQXmGk31fPtsdqcAfNuFocVzmNUkREls9EX+SyMORvpPKxSpoCcYo9PXROzivOr6VzZxtl6V7cNduorGml31hNZ5cnN03aUIirpwuXdRh/UyXbKhvxDRip6+yhdaIftBVaMSaTZCpa6Q6FicQihPtm3dCcKMdjjxNoquSxykb8wxZcXV24CgCyZOfpsubt/wAKnHR2ebAnc31oZWMH8XIP221Xe5PRQH5pC95qM8PBiVGBWCmwQioZnzUyOEk8nsFiteYisQX051gsWIwWyttygVckMkjQPz28XIgCnvVux9zvxx+eK9TMMZe14DQGaa58jMp6HwPmumnT4OdrdzM2m4VkMkWxO0BfODItcF5YRU3lXnq8ZWSCrdRve5RtjR0kiz20e0svOWXdVFCFt6WMzEDvVBgeCxKMWqj2uCjJM4Ahn3KPi7LMAMGJjQxWK1aSxOIzy8vGYySxUmi9zI3rTIpUxojVZp1ZH3sRVqMZi8W84DYx2AqxEidmrMPfGyISixEZ7CPgLp22hIMBa4EFo7GYluAg4cjENjPWwE0zkgaL1Trzc1ieHZvFiNliyf3/WIJIJDHtujRQ6HLiSA8Rmr5+htHO9pZS4v5GKrfV0NydxO7poqthMmjNzrMEVwGuzi62W6N0NFXy6GM1tPabqWtvY3K8wdhIhEhielKcT52zDPNwiKGxXPmpkTRYCrHNeDus2G1mjOZ8LIaFtp+IiIjIrWPJlzuIRqN0dHTQ0tKC3T5zftVcAa3f71+SZQ6MxiS7fG2EEpBbHsCNv3QvXlc1/vDECKFMin6/m97JUNRUi2u7hSFfPW25eWckEl6azHb2trioCLjom/V9qsjpwhH3s80bnBhNMkJ3s4+iN9ppqPARClrY7qrA2N9MU3sod9xEN+7mNNvtGczAyNjEqJJMhrH5vu1eSl41rmozQ63NtE/Wu9eNr3AvO2/CFSVERG5ppmpcdbP6ot5WmtMJHJlceFnkdOFI7aC+uZtIFmCE9uY0I3VWMIOh2IXTOoRvWxt9EwnQSHszZvsbeGod+MNDmM1mjLY62j1xdne4CSSN2KpceDp7sGRqaAmNYihz4bTH6aj00Dsx2HDE20w6UY3ZaIB5V2cvuEz/Z8DudOJI7aDG3TtxHgnam80Uv9GG5Qqbrag1xM5nbRjJEN/tpmnHRIUNZsxGyIxeHIhmMhkwmzECtsv252MY0xEGBiA12EcokAJrKc4WDz09RmrqA8QW0IXn13px2YbxN4cYu2R0ZcSY2k1ra++F97etyYz9DS+uaj/h4HwLUZjJNxuxVLTRluyno7WJeMZKuctD204rxhrnhffyUsZCrVRuM5MeGc29wyNBuvtdVDhKsDI4Y/kBQ6mfN3rqsADp6Mu4W/uYivsS7HD7KenxsnO/J/erTJxdzU1MrLCB0WyGTIqL3p10hgxGjJe725wdoHd3kh5XO61xN/5QEkvJdtq8FZgvFLrANjFbMFNMS6eV4V0dNHWkMNsbaPF00WNupMYbZgxIx4YYMGcIhwIEkmksxQ20tHSxM6+RyrYwWUbZ3d1PS6eHdleS1pfDpKyltLR5cBhnj/SeklfeRuezFoZamy783U4aDjTTHpr8bOqmtWAvO50NFPW2EZm3gRIEGh9jF6OMTpQZ6uhl+FkvJcUGukdmX7QmStxdeO1xOup3XRgpndjdy5DLi7ezgVTrLiIZK1WeTpx2uLAo8gLbT0RERORWseQhbVNTEyMjIwwNDbFz584LQe1yBrQAmXSUyIxRGaMMh5MYG4qwGYITH2jTpNNTH04N9iJsxOkdmDnvbGRoiLingiIb9EWnv2LCbrdhLPayJ+KZ9nsjRrOReIEVDDaKbBDtHZjxwXQsEiQw/6fqBZscudA9NL3eWYbDUdJ1WvJARORmYrAXYTNe/G96rC8wMTLUhN1uJT08SHTG/O4wvYHcauUFRTYsFhvtb0Rom7aJ0WjEODxtdJ85ze7GRtpySSDh8DBpy17aXXXkhwIYi2yYk0MMzQj1RhjsDizkRC7T/+VRZrOQuug8hhmOZ6i4UE45HW90Uj1tCZ9M/GXqK9smAsycaKCJmj4LFlspzpZ2dnaZqXf2ksimSWfAmHdxf2g0Giem3y+gPyfG2GAA1+C0l8NhhuJG9ux04nS8jGcwS4EryB5P8bQJ6xkG3A/jDGbBVI7H4yAZqJlY1/NSMqSj4VntMsRgHBqK7BiC4Xnj8THAzBBNjV5CYwBhwkMpzHt7cDYU0dsWmb+eZMHiYHtDCUU2KxarFZvNhjFpvGgifna4g8bKXsxWO+XOFjpfteCuacmtsZpfS+dOL/boyzS7Q8QzZoprW2jpfBV/cyWe0BiZdBqMF5eL2YiRTG4FhXmvgSxhXxNuYzvezr08awTScXb7/fS3tGBMpwHzgtoEMmA0kuxuwhVIXHiPowTZ63FR4Q8THMsS6W7B2T2truEw0UyQPR4X1R1hgmO5oLvR10anZydveIBMiuFdfjoybTjT6YveM1ORm672atjVRHNw1sWRiRMenvUZb3CYdJ0duwkil0s+M2bs1XWUlhRis1qxWG3YjUYGLmp0AwUNnXQ+a6bfXU9g+l2HkV6am8x0tnt5dX8bkCE1tAP/yxnaKtLkPk4vpP0uU1cRERGRz5AlD2lNptw0sbGxMerr69m5cydWq3VZA9pLuqLpiDPNHXUagQzpgVZq/MOzXsuQSaUA27Rtr+9iXHPVURGtiMjN6dL/fk+8Ypx/i0xyN82NAWbNIieTTjFKFuNIikw6SXhmEkg0EoeGAqyGqQFy1+Yy/d885wFAdgh/Yw0zYuFMivisIrOjCWKjCWKRXHC691UXzqJdeCNJEkmwWG2YiE0LjK3YbEZSw3EyC+rPL1G9aJhoZjtWqxkYJbnLTc2s9CudzAIGSjweKjK7aHz50qt/XrsUqVSGTGpwYqr6ZEWHCMczVFutGIjMU08oaOhmp9dOsn83ocE++pJxMqVtdJXNcbixEWKxEYhFCA+lsOztxFlXQF8gQaHTRVlmF41N7UxOWopFhklb3qDdWUdHqJtUMkmSMgpt0DetWXI3oJP0xrOXvwayCfo8tfT58iiwGEklRxgzO+n1JhmOZxfcJtlUilQmRXRoxkqypIaHSeFgIqufU/KibcaI9bZQvquVfKsFUglGxgpxhyA+GJ3xF2EoaKCz61ksA27qvYOLO9rUVILv1R6qGWJ3/yB9g30kkxZcPd6LNs2vaqfHayfqa8Tdd/FdhLFwAGfpy5jycw9OS4xCqX8vmXiMOFxT+4mIiIh8Fi35mrQ//elP2bJlC5ALaquqqigqKlr2gNZonnxYxKR8yoptZOKRi77YTcpGI8SxUVI28ykVBQ4H1kx81shcgDTReAqzvQhLMkEiMfGTBKvNipEsZHMjeu2ljhkZsaGoFlfD4qzRlY3H5qi3AUepXSGtiMhNJhufqy8yUFDuwlleAKSJRpNYikuZ0c3lldDgqqUkD+KROGmLHRvT+qZECqPVhsWYm2w9MjRM0minxD6jEOxFNkjFSGYhGYmTtjpwFEzbhHxKnS6qCi+zVuhl+7808Xjq4vPId1A8Y03aMUZiMWLTfxIT0/DzqvD1duOe9cDN7OTDqYy5/YcGoxgdtVRMb9LCWqpsaYYHh8kupD8HilzdBDtqZ/bd1iJsxjSpVG50ZHY0MbOusRgjY4ChmKoyG0brdnYemDzGG3iLjVi37+TAhQeY5ipunqNdSm0Qj0Qvc8s3d77YSmbub3BQYjOSTCbJzldP8nBUOaC/lfqWNgK9QUKDUTBbpn2mKKCho5eAs3DmoSfa3WgCMGA2GzFmJkdZXtiIdDqD0ZyHGchGBxlOW6monb72v4mKWgfG+CC5AeXzXAMU4eoN0e0shLFREokRxrJQWFdFcXKIUGzhbUJ0kOG0BXvxzPVtLcXFWEiRSALk09ARzB1vGrPdPm0bA6WtfYQCteRnxxhJJBgZA0NJAxXWKKHpT7DLr6K9x4s96qPR3cecA6yNNkodM/89KC4txpyMEr1MomuwV1FmjRJocuJt7ybYFyKcMmKe9QHRVOqjp72MVEcTTb2xi64xU5WfUJ+fclOWsZEEidEsmMqoLTMzHBq4gvYTERERuXWs3LBhw59f74Ns3ryZJ598EshNFayuruZf/uVfGB2duUyAyWSis7OT6urqy5b5+uuvc/DgwYt+f/vtt+fWjLsCRvu3eLbsfqwPPcC55Aek77DxeEsbnicy7G79M/5p5BxseISG7XaSwb9j8OjEjtk4Rzd8ixefq+Du1AcczZixPe7hB55v8NGOP+a//uwo51bezePfrsMS+Vv+IXKSo+9nKHr2eZ5+5BzJD07Ahof45p+00/7cI4z0/QORjz7iNx89QN2L36bsjqPEj46z4ZFv8f0fePnmeIj/Gco9mfn+bz5L9YMr+SB+lNOpUcbOzXeGK7F98zm+aRwk8FqMc2d+w9G763jx2cfZkPyA5LiZh771fTx1NszGo/xz4DVi85YnIiLXyxX3Y2fiHL37W7z4bK4v+iBj5qFvfo/2HzzNhv/9P3ktNsbR+Llc3/PQGZLxNFi/zn9u+wEvPXKCV7oHGfngA1aVPU9L3QOc+eAD0iutPPL092lve5ovvB+kL3YGjsY589C3eenbxZxLpjhttlH2Qhvf/49r+Oc//zP+IXGGc8nJcr7ARx8kOb3SxuN/2MYPnrPx/t/u5F8/mlbvDV+nYbudVF83oQ/OAZfr/w6S+CBDybefp+6hM8TjaVZav84L338Ox513kom+wt9d6KAv1Vbj3N/wEi9+6xHuSH/EGe7gC8XVeNpepPjoK/g63uDoORiLH+Xuuud57vENJD9IcYetgj/+wUtsTQb44/8WZpRzC+jP4cTKR3j+e89Rdneaox+Ns+Ghav74By/y1dQOWv25Y13SuRS/Gvh/+MdXeuntnfwJkSn+JtahP+b/cv8t/3psjCwrsX/rOcrut/DQA5D8IM0dtsdpafsTnsj8I61/9k+MTD/ORe2eO98vbP8ezz1+B0eTH7HS6sD5gzaesf4rHe4ufjVvsDfOhpLt1H11A2PxeO7a+ZaXP9n+IHee+RW9fzfIKKdZ+chzfO/5b/LQuY9InV6J2ebA+X0vz1jf56/+/K/51UfnSKUL+Oa363j8C2lSqXHYYOPrdX+C99sPEv87H3/1r6Nw7gPi577Os88/zUNn4iQzd/OIsw3vf1xD/5//F/4hcblZSCc4XVDH956r4AupOEksFNf9Oe0tD/K/fX9Iz/tnFt4mE3V5vuVpCjNHOZox80DFH/KD732DM//Yyp/90wjnGGP8/m/zve9V88CZyW1eoN3zBOf+0Yfvnz4gyzmOZAp59qXnKNuQ5IPUSqwOJ9//wXbMu9382WsjuVDTVIpvZyfVq/rx/bcQZ+68m7vvzv1sWHmC0bFzrLz7cb79tA3LFx7h7o/iJMc38Mi3vk/bczaGO9x0zXozjQ/V8lxZhlCgj/fPwTnup/zb3+QBkryfHGfDA4/j8rbwxP1GkqEAr8XOYShy8fddz2P5Vz++4FHMd0/WYwMrT48yloXsCSNff+5Ftj9yjg8+OI3xC2W0tHupSP81f/hf32L03ELbT242V/NdTERE5GZ2LX3f7H1/b9OmTf+2WBW7lCeffJIf/ehHM36XTqd55plnOHDgAJALaKevUXs5L774Iq+//vpFv1+3bh2nTp26ovqZarvZ70nT6kvT4Kmj2Aqp+BC7/a34QxMfjAtc9O2pZai+nLYZa8PmU+r24ql2YLMaySSjDHT78XWHcw/CMBTh27sTe/c2artz4x1MhbV4vC4qiq1YyJCMD9Dr8xEIT4bWBgqqPHhbqnFYLZBJEu3voLU1eOEhI4bCBjrbWyizwe6mx/AMzvelxEB5x346zT4edgZz52PIp9zTlqu3JUNyaBe+oJm2Ngv+h50Er+9KCyIicglX049BPuVuLy11DmyWqb6otXvqwTumoga8HicVxTbMpIgP7abD56dvMtTKK8HpacFZUYzVDOlklP6AD19vZGo6taGQWq8XV4Udq9lIOjnE7g4f/r7E1Ei6vBKcXg/OMjtWM6SiA+zyt9I+OPPGLAVu+vbUEZ3Rh12+/zMVOWnzOjkHNvcAACAASURBVCmzWzFm4gx0+IhUdVE7XE952wIWbzcV0eD14CwrxmoxQirO8EAvHf5uwtOqaCiowtvWQvVEe0UHuvG1BmZsc/n+HPLL3Xhb6iizTZzPQC9+38xyFi4fZ3Avzmgj27yT68waqO3+JS0pN/6ME09dMdaJ99fv8xOaHVrO2e5gKCjH422hotiGxZgmOdxPt99P72UXMM21qbO9DVeZHQtp4kM76E6W4XUMUVPeNjFjPY9Sl5eWWgd2mwUyKZLD/QR8foKxqWPkl7rwtDRQZrdiJkMqOcxAbwe+7ukPkTJR4mzD66og16zD7O5oxRdMLHChqDxK3W146sqwWyB9if0X1iYmipxteJ0O7BYzmVScod0d+NpD00a55lHi8uJpKMNuNea22dWBryPE1HO4Jq/9Ohw2M6TiDO3209o2VU5eQy/72xxznlFyRz3bvGEo8rF3p43uphAl3hbKbJP/Hvho7Y5ctDSCqaGX/d407odd9E3UpaDKR5unmmKrGZLD7A6EsHhawPcwziBUBfbTWTHXE9rS7G56lJbQxJVZWEubt4WKYusl/4YW1n5yM7m6PkxEROTmdS193+x9ly2khamgdmRk5IoCWrgeIW2Kpsc8zJt1Xg1DCb69PTNC2kVnqqV7fztlc6xVkIn+D2qq2rWkl4jITUJfcEVE5GalPkxERG41ixnSLvmDw6Yzm81zBq2fGYY8CiuqcFgyRJOL8ziVOY3101oTZa4xDWRSFz0ERkRERERERERERG4cSxLSnj9/nnQ6jdk8Z4x4xU6dOsX58+cXpazryVDcQld7BendPjpC13P9gNwDMjQtTERERERERERE5OazJCHt8ePHOX78+KKFtEePHuXYsWOLUhbAWNBJYXDRirsgG/ZSWuhd/IJFRERERERERETkM2PFUhzkwIEDc65Je7V+/OMfX3jgmIiIiIiIiIiIiMjNbElC2jNnzrBv3z5eeukl3n///ataUPfUqVO89957vPTSS+zbt4+zZ89eh5qKiIiIiIiIiIiILK0le3DY6dOn2bt3L8lkkrvuuosVK64sHz5//jzHjx8nFospoBUREREREREREZHPjCULaSE3ovbtt99eykOKiIiIiIiIiIiI3NCWZLkDEREREREREREREZmbQloRERERERERERGRZaSQVkRERERERERERGQZKaQVERERERERERERWUYKaUVERERERERERESWkUJaERERERERERERkWWkkFZERERERERERERkGX3mQtpTp04tdxVERESumvoxERG5WakPExGRW81i9n2r1q1bt2iFiYiIiIiIiIiIiNwqFiuoXfVZu9u5bt063cEVEZGblvoxERG5WakPExGRW81iDn79zC13ICIiIiIiIiIiInIzUUgrIiIiIiIiIiIisowU0oqIiIiIiIiIiIgsI4W0IiIiIiIiIiIiIstIIa2IiIiIiIiIiIjIMlJIKyIiIiIiIiIiIrKMFNKKiIiIiIiIiIiILKNVS3mwNWvWsGXLFiwWCytWXFk+fP78eY4fP86BAwc4c+bMdaqhiIiIiIiIiIiIyNJaspB2zZo1bNu2jRdeeIG77roLs9l8Rfun02mOHTvGX/3VX7F3714FtSIiIiIiIiIiIvKZsCTLHaxZs4YnnniCv/iLv+CLX/ziFQe0AGazmc2bN/PDH/6Qbdu2cccdd1yHmoqIiIiIiIiIiIgsrSUJabds2cILL7ywaOV997vfZcuWLYtWnoiIiIiIiIiIiMhyWZKQ1mKxsHHjxkUrb+PGjdx1112LVp6IiIiIiIiIiIjIclmSkHbFihVXtcTBpaxbt+6KHzx2IzKU+BiMhOmoMi13VURE5KZmoqjBT3AwQiwRIzIYpMNZwuzeJa/UTaAvTCwWIxYO0e0uJ392UfnluAN9hGMxErEwoe5WqgoMM7cxFFLr62UwEiMRizAY9NNQdCV9mYkiZ8dUfUO9+KoKmHUU8kqcdAQHiUzUN+h3ckWHWVA98yhxBgjFEiSCTvKuoHgREREREZHFckMnnel0msrKSgoKCti1a9dyV2fRZZNh+gf6GYxnlrsqIiJyE8uv7aTLW0wy0ExNZT3NgTi2li66GgoubGModNHTtR1r1E9jTQ2N/iHM2zvpai2aCkcNJbT2dFJnHsBXX0Nlo49+YzXtPV5KLmyUR1V7D20VGXrd9VTWu+lNOfB2tVN7UeI7t4KGTno8xaS6c/Vt7YeK9h7aSqcCVEORm54eD/ZUL+7Gehpbe0kWe+jpcVIwT9lTFlDP/HJag3vocVlIJ9UXi4iIiIjI8lm13BW4lHQ6TX19PbFYDACfz0ddXd0y12qRjfTR1tK33LUQEZGbWj7VDQ4yuxtx94bJArFYlHShg521FeT3BhjBREWLC1u0g0pPkARAzEuz0cZeTwvVASfBUTCUNVBtHSZQ307fKECMWJMR+34PDWU+wqEsFDpxVcDupmYCg2MAxJrT5O/dictZRLAtMn91DSU4XQ5SO+pp7o5M1LcJbHtpb9lOYDBAAhMVru3Y4h1UugK5+hIhHIfgHheu0h14BrPzH2cB9TQ4qnCkAjQ27cDctp9OyzW8DSIiIiIiItfghhxJOzugBaitrb1ux3OHYoT9pTOmWRpKfAwmQrQW5f7fVFiLrzdEOBYjFgkT6vVRWzi5h4HyjgiRbjeuQG6b0MSOF6aWJhIkYmH6OhqmpmoWuOiLTR0DDBRUtdI9ORU1EqLXP237yeMEnNT6ghemb4a63ZRqfqaIyC0qxe7Wepr8w8yILTOAEYwAhmLKi41E+3ZPBJ45I7v7GDIWU+7I9WfZoQ6a6lvZNTr7GMYL/5Vf5sCWHqBvaGzq5ewwfQNJrI7yy49ytZfjsCTpD0am1XeM/uAQGXspjjwAC4VWI6nhYZLT900MMZw04ygvvmhphNkWUs/sbjc1rm7CF52viIiIiIjI0rrhQtq5Atrm5mb+9E//9LodMxiMYi6rwjE13xNHbRmWaD+9ESC/ls4eL8XxAM0129hW76Y3XUZbVxvl05a2MzuqKYn7adz2GDUdUchvoLNzO5ahVmoee5TH6v3Ei720txTN+eXSVN5GT3s1DLRSX1lJTXM3qWIvPV0NM770msucVI10UP/Ywzxc4yNue552b/llv7CKiMhnUZaRWITY6LSINq8CZ7WF+MBALpQ127Ca08Tj6Zm7ZuIkU0asVmvu/8cSRCIJpmJNA4UuJ470EKGhLGDAVmCFZIzojEQ4SzSWBKsV22U6I4PVipUksfiss4jHSGKl0GoA0oykwWK1MmNF+zw7NosRs+VyQ14XWM9slsuMxxUREREREVkSSx7SRqNRmpqaiEajF702V0Dr9/t56aWXrmudErv7GDaXUVs28c3S4KCqzEI02EsCKHK6cMT9NHmDhGMjjMQG6W720W+soKFiKqXNRLtpbQ8RGxllbCwLlgIsxhTDfQPERkYZiQRxb3uYyrbIHF8KC9juqsbY30pze4hIIkFssBe3ewcphwtnybRvvfFefIFBRsayjMWC+HujmItLsCulFRERQyHOzjYq0jvwdUz0p2YjRjJkZi+7mk2TzoDRZLyoGIC88jY6n7Uw5PfRN5HcGo1GyGSYXVQmnQajkblLmmI0myGTvmh/0hkyGDGaAUbZ3d1P2uGh3VVCvgEMBaW4Oz04LneAyeNcYz1FRERERESW0pKHtE1NTYRCIerr62cEtZcKaJdkHdqR3QSHjJTVVmACDGW1lJmHCe4eAUzY7TaMxV72RCJEJn/2d1JhMWMpsE6Vk06Tml5upJfuITPbd75BX28HPncDDqtx7lE7BjtFNogODk0bwQTZaIjhlAW7fWrUUCaVmjH9M51OA2Z94RQRueXlU9Xehcc2jK/JT3iyw5kMQGd3FAYzZiNkxi5+aJapyE1XezXsctMcHLnw+0wmM2fImQtfJ0JRQzkd4RiJROLCTyzUSpFhnpB0VpA8Fmql0TeE1bWTNw4kOLCnHUfcT8dQJlcGUOAK5pYTuvATo7vWsPB6ioiIiIiI3CCW/MFhJlNu5OnY2Bj19fXs3LkTq9W6fAEtAKP0B4fwtlVRZhqA2jKMA63sHoXcOnwZ0gOt1PiHZ+2XIZNKXVzcBQl6nY8xUFJBWWkJpcUuOp9tIepvpKE7Ns9+IiIiVyqPUl8P7WUpXm5spjcx7ZZgOkkybcZqM8PgtAVYjTaslgzJ5IyVXzEUNNDZ9SyWATf13sFpNw+zxBNJKCvEboCpZ3cZsBdaITlMMgswhL+xhsD0QjMp4lkgmSRJGYU26JvWFRpshVhJ0hufLHSMWG8L5btaybdaIJVgZKwQdwjig1GyQHKXm5qBmTFsOleBBdZTRERERETkxrDkI2l/+tOfsmXLFiAX1FZVVVFUVLSMAW3OWH+QgYyD2rpqqhwZBoL9E19K00TjKcz2IizJaaN1kmC1WbnEuNgcUz5FRVbS4T562724GrbRtDuDo6GKwtnbZqNE4mAvdTBtmVsM9nKKLSmi0fnCYBERubUZKHJ10VmXYVdzE+2RsZkvZ4cIDWcorqqescZ5fnUVDoYZHJrWl+VX0d7jxR710ejuY2RmSYwMDJE0O6hyTOutDMVUlVlJDYfILTU7xkgslnsI5uRPYpQskI0OMpy2UlE7fX12ExW1DozxQYZGc+dT2tpHKFBLfnaMkUSCkTEwlDRQYY0S6s8FzdnRxMxjxGKMjF1JPUVERERERG4MSx7Sms3mGUHtdCaTiUAgsOQBLQDZAXr70zhaPJSlBwgOTH5hzRIJBBgw19He5aK8qICCwlIa2rvoavdQNs+zS0wOD107e2h3llCYn09BSR0NxRbS8RgXR64JdgR2k6loo8tdRVFBAYWlTtrbt2MZCtAd1pAfERGZi4GChi66PDaiL3cQTFspKiqa+CmYuPE3Rn9gB3F7C53+BkqLCimp9dHlKSa5I8CuycG1plJ8Pe1U0I8/EMVsL7pQVmH+RKQa66ZjwEh1eyfu8iIKi8pxdbVTZx6gIzDXmuuzZAcJBIaxbO+k01lKUWEJVe4uvGUZdnfsyD3ojCxDoWGMZV46W6soKSykpMpNV2cd7PKza3ZyPJdrraeIiIiIiMgSWvLlDmAqqH3mmWc4cOAAkAtod+7cid1uX44qAVnCwX6S25/FuKuX6YOKGOmluT6Dx+uibWcLFjIk4wN0NPnoTly6xLFQK83+NjzOLl71miGdJDrgp6m1j9FLbN/o9uB1edn5rAUycYb7fTT6epnnMCIiciszFON0lWEBLM938erz018covXhBnrHIBtpp6kJvN4WuuoskIoztKuZ1rbwhcAyr9rFdpsRqKZ9Z/WMwyR31LPNGybLKH3uRszeNlztO3nemCEZ7cfX6CO4kPAUSHQ30UQbXlcXO72QSQ6zu7URX2jawgphH43uDN6WNnqeNefqu7uZxrYwY/OUPeXa6ykiIiIiIrJUfm/Tpk3/dr0P8uSTT/KjH/3oot+n02meeeYZRkZGrjigffHFF3n99dcv+v26des4derUNdVXRERkuagfExGRm5X6MBERudVcS983e99lGUk7yWw2zxm0ioiIiIiIiIiIiNwqlmRN2vPnz5NOpxetvFOnTnH+/PlFK09ERERERERERERkuSxJSHv8+HGOHz++aOUdPXqUY8eOLVp5IiIiIiIiIiIiIstlSULaAwcOzLkm7dX68Y9/fOGBYyIiIiIiIiIiIiI3syUJac+cOcO+fft46aWXOHjw4FUtqHvq1Cnee+89XnrpJfbt28fZs2evQ01FREREREREREREltaSPTjs9OnT7N27l2QyyV133cWKFVeWD58/f57jx48Ti8UU0IqIiIiIiIiIiMhnxpKFtJAbUfv2228v5SFFREREREREREREbmhLstyBiIiIiIiIiIiIiMxNIa2IiIiIiIiIiIjIMlJIKyIiIiIiIiIiIrKMFNKKiIiIiIiIiIiILCOFtCIiIiIiIiIiIiLLSCGtiIiIiIiIiIiIyDJSSCsiIiIiIiIiIiKyjBTSioiIiIiIiIiIiCyjVevWrVvuOiy6z+I5iYjIrUP9mIiI3KzUh4mIiFydVadOnVruOiyqdevW8Vk7JxERuXWoHxMRkZuV+jAREZGrp+UORERERERERERERJaRQloRERERERERERGRZaSQVkRERERERERERGQZKaQVERERERERERERWUYKaUVERERERERERESWkUJaERERERERERERkWW0arkrICIiIiIiIiIiIvJZYDQaWbt2LbfddhsrVuTGx2YyGdLpNJ9++ukl99NIWhEREREREREREZFrZDQa+dznPofRaLwQ0E7+3mKxcNttt11yX4W0IiIiIiIiIiIiItdo7dq1875uNpsv+ZpCWhEREREREREREZFrZDQa531dI2lFREREREREREREltH0JRAuem0J6yEiIiIiIiIiIiIis6xa7grcEEwPUvo1C8k33yRxeurXho1b+VrRRs6+N8TPfzPG+eWroYiIyJxW3//vKLWd5hc/e4fRizqqNRR8o4xN6SF+9s6J+fsxw/38u/9wHyfeHOS90/NtKCIisohMD1L6mI2pFfzO8WnmLOnUYQ4e+A0nsstYt0mr8tj6jWLWH/s5g7GTy1+OiIh8JimkvYQV6x/k0aJ7GP9NmF8ooBURkRvU2d+OcPLBB7HeuYLR2Sntmo3caz7D0XcvE9CKiIgsq485NPRzfnMWYBVG8wbyCzbjeMzCu0M/5/By3zwcP03q2DEyqTNXsNMaCr7xDe797Zu8OTkS6KrKERGRW4WWO5jDijX38dWv3s+KI79g/3snGV/uComIiFxK9ijJEyuwWC0XdeomqxXzx8c4rME6IiJyIzt3nkzmLGfPnuXs2TFOHjvMr/+/t3j34/UUfuk+Vi93/TjLkdg7vDd6rcN6F6scERH5LNJI2tkMG9n61ULW/u4d3npnlBnd5yoT+Q/asd27ntUrzpNJ/47D771L4kQWDPmU/Ac7mcg+IsemxivlpqGm+fnPfs0JDWMSEZFFl+VYMoX9S/lYVh3j2IU7iybu3biWj4/9gjEAVrDmngexb76X9auNrDh/hpPHEkTfPczYHP3Tinu+Srn9DD/f92tOXCiykH//NTOJn4U5PNFBrs57kMItVj63ZhWMnyV9NM67sRFOq88TEZFrcpbD7/2Wgq/dxz1rDl9Ylu6y/c7qPB78kh3rnWsx8ilnTiaJvRPj2NnJcg3ceb+dB++3YL5jBefPnOS3B6PERnKzJ/O2PkHxqkO8d/5eNm9cQ+bgm7yZWMGDpV9j/W9+RvhwNtdHPniGd96D++1WNqyCzOkUyQPv5gLYVfl8teJhLADmMp7ccoZDb/0LsZOmGeUArFhzDw/aN3PvnatZdX6c079LcjB2kGNncyc0eax3D67kvs0bMd+xgvH0MQ7+8h0Oz9WBi4jITUsh7XS33UnhV4qwnI3xVuQIZ2e8uJr7vuJg8/k47w69w0fjKzDfY+fhrz7KbW+9yXtjxzicsvOlfAurjh2bGH27hnusZjK/fVcBrYiIXDfjx0ZIfWkr+ZZVHDsykdKut3LP6jSHJ+aIrrizkK9utZB+b5i3fpvmU6OFLcVb+UphmsFfn7yq5RBW5W2lpNjMiegwb6U+5vwdFgq+ZMdRdJ433j6CxgmJiMg1SY9y8lMr69eugNPnF9DvrOb+oq9gzbzH8GCS9LnV3PulR9m69TQD4cNkWYHpwUf56n2f8pt3hoh8NM6qzxXw8FYHRecHePtIFljBbZb72HjwXYaiJ8mMjwOmi+tmvJcH7zvMO2+FOJFZhcn6Jb7yFQcrwm8SOznCz//pJAVf+wb3pt7irYNjnJ+rozXcQ5FjK2t/F2P4zRRnWc3GB7dSVLKaX7wZYXTyxusd97Lpc1F++ea7jLGG+7Y+ypeKN/PR4HsTN2JFROSzQMsdTFq5mvuKvsKmtSvh/LmLOtEVd25m89oUv/xFgmNjZ8mePc1oYphoajXW++4Exjk2koLP3YdlMvpeY8W65jRHDqvrFBGR6+h8iuSx83zOarlw93X9PRsxppMcmbjjeP7Er3nzZ2/y9m9OcDo7TnbsCPFjZzGa12O8qoMauNd2D+MHf8E7Iyc4nc1y9uQIv/7lYT613MfdhsU5NRERuYWd/5RPz8Ntq1awsH5nNeY74Mzobzlxdpzx7BiH3/4Z+8KHczcOV21k832rSb37C947NsbZ7FnGjvyaX/ziPUY/XXnhsOdOJvhlYpTT2XHGL3EXc+XKsxx+9z1OnD0P57OMHX6H91JGrAUTyw9N7vfp+bkDWsC0aTN3f/obhiOHOXH6LGdPn+A3kXdIspHN1mmLPJz7HfHoCGPj52F8jMMHf8uZ1XeyQX2tiMhnikbSXnAbd/Bbht86gfWrX+IrBWneSkw9MMxoXoPRaKb4ifIZe61YcRsrT6zm/2fv/uOirPP9/z+EYRh+DwILIwoBgUKFwq5YlHYUtVXz2G/taFlbbZ7TurW77X5at/1Wn7a2b+vu9sPOsV3bbNe23LTWkz9OGrZqhxQ3KFxBJIYVRCB+OMCgM8OAnz8ARVREFAf0eb/dvK1c877e14trbK6d57zndRkAd205Ne3jGRlpoKrSTdDISPyayj3f6F5ERC5x7TQcrKV9/EgiDVVUus1ER/pisx46+VshPmaiR0YQFuyHn18ggcGBeLd49fMT22CGB3sTbL6BaYndt3vh4+0kwB+0lFZERM6Llw++Bmh1twPmPlx3bJSV2rj26sn8S3QtDQ0N1NYcosbWeUEKNBPs1YS1/uS7jhytK6e8+4ZW51nvS9LmbMJ20vs8N/UNdrxizARQ04cVrgaCg/1w2mpPHttuo87WzsjhwXj9s/Mq7nbi7F6Q24kbbwzeiIjIJUQh7XFHOPBFAVW2duoLhjNx3DdJtn3K3obOq6GXN21HDpK/q4Smth67trs7LuLtDZRXO5kwcgTGyiZGWvxOfYMsIiIyANobyql2TmBkpJGqo9FE+TSw79CJlNRoSWdiajD2qipqais51HKE9sixjI84n6O2UVv0KV9W97wwQrsCWhEROU9e5nCCaaG8qWvpzNmuO+00/3MX2TVmIiKGEz48ktETRjO66gtyCmo6Pzu8QF8m9Tp1JmWmIiJyPtTuoEubm6OtHRd/V80/yD/Yzsi0VCydXyFx2ppw+wYTiAuXq+uPG5/AYHy7nUVbeRVHzdGMsEQT6dNA+SG9SxURkYvBRnnNUcwjR2AZGYVX/cFuNxEzEDEyAqoK2F1QzD8ra6izNdNuMJz5DWV7K3j54tPtGmfw98Pn+A4t2OwQbA7A7ep2bcSXYH/vfvW4FREROc4rgJjEEfjayjtb9/TluuOFX1AAhqM2asqt7P1iF9u/qMHHcgVRBsBuo6k9kMiwk9cq+YXHEBPud0oJvfH2GU6EufsWI8Mjg2m32+hYYHu2K6Gbpqaj+JojTu5462Um3OxFi61J11IRkcuMQtrTctNQlM8/nRFcnXYFAUB7QymlTYEkfjOV6OEB+PkFMPyKcYwfP5aE0G6nsfkgB1uCSbx6BD615d3eIIuIiAys5vIajppHc7XFi9rKmm5f1XTTcsSJYXgMFnPnNSxmHFePOHM32vbDDdi8Ihh9tYUgPz+CwuNJHR3W7f84HOVgSRVtlrF8Mz6SID8//MwWkr95Ld+82kLAgP6mIiJySfH2wtfXDz8/P/wCghgeeQWpEzJJCbTxj4Lyzm8m9uG6Y4gk+dobyLjKQpCfEWPAcEZGm/Fy2mlqB9w1WMudDL/6m4yODMLPLwCz5Sq+mTaacJ/Wcyq5rc2HEcmpRJsD8PMLIjL5m6SYj1Jure0MV1txOiEgciSR5gCMp3nn3VxWQrXPFaSNi2F4gB9+QeFcMS6VkdSwr1zfxxQRudyo3cGZtDdT/HkR5huSSRttI6fYxj9376R1dAoJaTcw1hda7TYO/WMnRSclsS1UHWwiMcWfqvJaffopIiIXT0s5B1sSGONbxcHak69AtqLPKfK5msQJN+KPE3ttGaUHA7k67AxzucopKAhiXEoqE0e2c6T+EMUlhwhODTw+xF1XwK7PR5OcmMy1if744KSptpTd/7DqbtMiInIOAom7djJxALTReqQFW20xOZ+XY+v2xcSzXnfcVRR87kdqSgqZk33xbnNibzhEwe5ibO0A7diKd7LbmcLo5Gu5wt+L9iNN1BTv5B9V57i6xl1DYYmTmHGZjPX3wtlUS/nnn1Ns67r+uqkq/AcRaWMYN2EkB3dns7ehxxyuKr7YCaNTEkm74WoMOGmpPcgXu0qo02IfEZHLzrC4uLhjni7iQgoJCaGxsdGjNRhjJjA5voldfyvC5tFKRERkqBkM1zEREZH+uFyuYV6W8UxLOcLu7L30zF1FROTyNmLEiLOOOXToEHDqdVMraS8kgx9BwREkxptpKf+HAloRERERERERERE5K4W0F9Dw0RMYP9KblqoCPre2eLocERERERERERERGQIU0l5ADXv/xkd7PV2FiIiIiIiIDJT2qt18VOXpKkRE5FJzmntMioiIiIiIiIiIiMjFopBWRERERERERERExIMU0oqIiIiIiIiIiIh4kEJaEREREREREREREQ9SSCsiIiIiIiIiIiLiQQppRURERERERERERDxIIa2IiIiIiIiIiIjIAGtvbz/jYwppRURERERERERERM6T0+ns9fHW1tYzPqaQVkREREREREREROQ82e32Xh9vamo642MKaUVERERERERERETOk9PppL6+HqfTeVJrA6fTSW1tba8raQ0Xo0ARERERERERERGRS53T6Txr24PT0UpaEREREREREREREQ8yhISEeLqGC+5S/J1EROTyoeuYiIgMVbqGiYiI9I+hsbHR0zWIiIiIiIiIiIiIXDZ6frCpdgciIiIiIiIiIiIiUsaohwAAIABJREFUHqSQVkRERERERERERMSDFNKKiIiIiIiIiIiIeJBCWhEREREREREREREPMni6ABERERERERGRocTLywtfX18MBgNeXlr/JnI5a29vp7W1FZfLRXt7e7/nUUgrIiIiIiIiItJHXl5eBAQE4HQ6cbvdni5HRAaBYcOGERAQQEtLS7+DWn3cIyIiIiIiIiLSB15eXvj7++NwODh27JinyxGRQeLYsWM4HA4CAgL6vbpeIa2IiIiIiIiISB8YjUZcLpenyxCRQcrpdGI0Gvu1r0JaEREREREREZE+8PHx0QpaETmjY8eO4ePj0699FdKKiIiIiIiIiPSBbhImImejdgciIiIiIiIiIiIiQ5BCWhEREREREREREREPUkgrIiIiIiIiIiIi4kGG3h82cvub+/jVjd23Oakt3cmaF5/kV1sqz/PwRiY8+zErU95k6u1vcr6z9UvUTB5bFE/hsmVsruvxmCmDB56Yjv3tX7C6ZGDLGDXzcR6wbGfpG7nYB/ZQZxQw717Gj91Nzk+LcAH4DMfy2C1cfVMkR995nU/faOg2eAQxj00lfnwk/kY39qJCSv7zY6pK2wDwGnsTNzwKBQ9/hK3VI7+OiIiIiIjIJcc0KoNZ0zNJHBVBEEc5XFVC7uYNbC/z1DvJcxAYR+ZNU8hIHIXZBA5bBSW5W/kop+y83gcbrlnIM/OSKN/wK17PsV2wckVELqY+rKR14tz5LLOmTmXq1KlMve1hXsyPYP4rr7AoeeALlIsk9BpS5pmoWtER0BrGfov0Nx/g6gQHR0+5Wg7nil/OZfSoGoqfeoNPFq/lnw2xpP7yZiJDO0a0f/kp/zycQvLtwy/yLyIiIiIiInKJCs9k4QNzSI83YS8rpLDMhsGSyk0LH2TmqM41WOZMHn7uOZ5beM3ZVmWd0J99zlXgNcxd9CCz0uMxu+uoqqoDczzpsx5k0e3JBA7UcQeR8IyH+M3qbHYXFFOwO5s/Pn0rY4wnjzFGZ7Hk95v4tKCYgoJP+etvHiIjvOdMQYy99zeszt5NQXEBuzf9kadnxmHsOewUQYyZuYTXVmezu6CAgoJPyV79Gx7K6rGvMYvf7C5g9b0nH9gYN4/ff1rMp7+fR9zZDyYi56hv7Q6aaim1WrFarVi/2M7aJ5/lw9oUbr4xfoDLk4sl4LbxDK8u4GBpx8/B/5IC61ezbfHfqLe7Tx48KomRVzo4+PJHVH3ZwNHScspf/JgaYxIx4307B7Vw6JNKgm8ej9nnov4qIiIiIiIil6RRGZnE+LRiXbeMZW+9zdtvLeOl1QU0+0SQnhHn6fJ6YSJ51hxSQ1up3bWSpUuX8frry3hh6Up21bYSmj6LKaM8XeMAG/MQr732XaKLlvHIXXO454l3aZ74DCtemMnxKNSYwZIVv+XW4B08/+Ac7npkGdbkxbz22r10f3bj5v2GFY+Ppe6tH3LXnHt46mOY+sIKnpkY1EsBQWQs+RN/+e1Mwq3v8vwPHuGRHyxjY1083/3Pv7Di3jG9h7zRM3lhxRLGVS7lkUfepcx1vidERHq6cB+SBU3g/p//hPunpzDS18nB0p18+PKzJ7dEiJ7Gj3/+KHfcmEAETRR++DJvOrtNcfNydvwqmJen/htvHt8tnH/78w5+4nySqfevpWdHgovNEH4N02dlkRpnxuS2U1dRSPa6zRTZuoJMM8nT55CVOorwUD/ch8spyd3Muu1lOLomCYxj0pxZZMaFE2RwUL7nI3JOaQkQSFzmLKZnJmIJNOCwVVGWu5F1ORUd85gzefixdKo2W4nITCc+sIxVv3ibIsJJmzmHG1NHEeEHR2vLyN2wls0lvX15JISI8WE4i8pp6dzS8PIf6WhuMOIM+7TR3uNFuefP7t1Wmv5jPJYrwVbUy+FFRERERETkrAx+p76FdxStZumz6zC4HRA1nccW30gEQNI8nnkui22vvsTmajAnT2dWVjpx4SYMDhsVhdtYtzGfuvDT77M14tQWAnH/+gQPTnCza/lS/rsCMCczc85NpMZ1tV4oInvtOvLreiz0MSWTkewHh3exbmPJidYG9hI2b8glYooFn3AzVNiAQOImzWJ6Rsd7YbetgoJt69iYX0fXrKa4Sdw+J5PECBOO8lzW7el5VkzEZc7peD8dasBRW0ZB9gY27zkxx8U29rbbSK58l7ue/oB9APv28QOS2frbW5kYtJEPmiH6tu9xW/gunrrneTbWAezjhz+I5q9/+S6Ls97lh9kuMGaw8KEJ1L17Dz/445e4gH37HoH4TbzwvXn8bsfvKTvN8Y0ZP+KZhdHseuouHnr3xIgd2e+z4aE/8ZfHX2Bh7i38ft9pdg7KYMlrLzC1+V0eefD3fKmAVmRAnPuNw4zxTPvJT5gdnM+fN1s7NyazaOXrPJpSyvKHb2PqrPt4cWcwd7zyDs9O6vwkxziOH7/+CvNH5vPifbOYOuv7vOm8nUdnR9C19rJ581q2NaVx8+xuK3SjZ3NzmpNtazd7PKAl8BrmPjiHUbXZvP3SUpYuX0uuO4W5D84hsfNaGTX9PuZmGNi/YQVLn/0lyzdUETFlPnOSTZ2TRDH9voVMCrSy4a2X+NVLb5NzNJ2bUgM5seDUwKjp9zE/08CedSt4aelLrMyuwDxlIQszzSfq8bGQmu5H3uplPPvCakrcMGr6fcxJsrPtrZd49tmXeDvPQMbcOVxj4sx8RjA8Bpq+rOnbeagoorwogJEPphEUAPgEMPzBG4hkP+W7u6XuNV/TZA/EnBzQt3lFRERERETkjCoKSmjGh/g5j/HYwn9lUloi4SZwOxw43ICtiG3b9nMYoLaAjzZso8gGRE3nvgU3kmiqoiBnK7lVBkZNuIMF00edeZ+zCmfSgrlcn2SgNu8jNuSU4Lakc8eC6ZyyKDZiFBE+cLSqhIoeKamjZCNvvP4Ga/M7Dho16T4W3pRKhKOMvNw9VBhGMeGORcy9prMhgjmD+fNvIiUCqgr2UOJIYtaUk1cRR016kIWzkgk6XETutjwqGMX18+5jTmJvb4wHlvWtJ7jnB29xugy0QxAZWeNw5n7Ax93Dj33vs8EazNiJ4zpWuiZPZUJEJR+/3xHQdmjm4/dzcSZPZMIprREAjEycN5Xoot/x/Ls9I1wX+976Ne/XJjPvtrGnrqY1juHe115jXtDHPPHI8+xoPpffWkTORR9W0vriO/0Vviz6VcdPvr7gLOXDJx9mTWdGa5y2iPtTDrJ81k/4c+c26y++j2/Cx/xi0Wxe3v5nmm68n/kJhSyf9XPWWgGsWH/+Y+LTPubfuw7l2sbabbW8fvN04pcvxwpET7+ZtKbNPLx5AF8JfCzc+IPnuPG0Dx6loPNvUZlZxFVt4KWNezo/+bOTu3odox6fS0aygZI9bqo3L2PpdrA7Oq489qKt5FalMykuAooqMCTeSEZ4FVtf2sgeG4AN28a1hMb/mJu6DmlKZlKGiYK33ianonPbno2sDhrFYxkZROVsphqgtZmiDWvJ7xqDAXNoIO7aQooqbDiAsu1v8UKOG3dvHxcOD8AXO7aatj6esEbKX/wfhv/6Ziau+3bHJlc9B36xmprDJ49raYCIUSFwfI2uiIiIiIiI9Ie7ZB0r3j3KnJsyiE+awE1JE7iptRlr7jrWbizC5qggP7eEjBuTCD1cSE7Ono6Vo/Y81q2qgKoiymyAqRnLz+8gftQozI6c0+5z9rAgFIvZBw6XsX3jdkrcUFCQh8XnMLU9h5p8MAHuZkfvK1kNidw4yYJPcwGrV6ymyAHkVPHwY7NIuTGT8D2bITWDeD+o2raC1zfXASaS5z7GglSf43Ncn2mB8g2sfCsXG0BOBfMfv4NrMhPZULLnxLdcL6Lmyi/58qQt0dy2cCLBX/ya3OaOn+NHQt0OKyenH5VYrU4ioqM7FrhFRxPNQYqsJw3CZS2iknmMiTZCXc+lrvGMiw+mNjf39Ddsd33Bji9ruW1MMsF82W2BXDS3/vY3PB7/Bc/f8wQbPXK3d5HLRx9CWifOnS9y97M7cQL4BpMwbRE/+cX7vO57G/f/2crIcQkEH9zJzpNeJOrYtr0QFo0jxfhnascl4HvKmINszz/Id1K6fnax88/bqH3nZm5PXs6viuKZfXsKtZtfZOeALqevZdeqVeT0vJL4pXP7oozOH0xYLBH4xc3hsSdndRtkwODnQ11oIHS8/GMYdQ2TEkdhCY3AHBqBxeKDo6rjVAdaIjDY9mM96ZNJG2Xlh2mN6PwxYhQWv1ASFz5JavdhBj983DZCoSOkxUHz0e4D3JTk5GKbP4/HH8ugzFpBSUkBhUXVvd8pMzAQ79O0Lzij0GTGvXoz5qIdfP6r/djtgQRPv4GUJxfC//cGe//eFfa6aXeBt3HAWs+LiIiIiIhcRtzU7dnIG3s2YgqPIzklnYzMa4i/fi4L3MtZtrn69LvZ66i1jyI983YyLeFERFg62hv4nM97tQryig6Tmp7OfU/EUVVRgbWkgLy8ulNDUEcrDsDkZ8IAZw5qzRYi/KB1fyElXZPY9lNmm0VMuAWLwYDbEg4cxlrUFSU6KCmsojU16PgcliDwCZrFD56ZdfL8QaEEgkdC2h6FkPGj11iSbOXVe97vCE6NwQQZwVnrPGW0y+mE6KCOkDY4CJx1nDKq2YkTX3yDT3M4YzBBQdBc28SZ3vY3NzkhPogg6AxpfYlf+BrPjIzAt3YfTS71OBAZaH17RW6qpbCo6Ph/zEVf5HMw+GPeuf/fGPfnX9B0PhX4+p70o+uLP/PhwTuYfnMyL3MzNyccZPOPd53xheSCaHXjqK2jrmc/BZMNd/desYZWjhatZdlHFT0GunHb7YCJ5Nu/x9zEZooKiigrKKG29jCWWYuYdE4FGaC1ipy3VnV+otbtSG5HrxcUR9lGli3NJS4xicSkONLmLGLmTbm8tXwjZWfa0W6nDW+8+nh3xoDbJhLpyifnqZ2dn/A10PJfq2kd/h988+5USv6e3/l8GfAyQpvLU11/RERERERELhUmwuPiiDAcpqykGkddGfnby8gvqOV7P74JS1w8Zqo5XaeCwLSFPHZHEtTup2h/Ebl5FVwz53pizrWEk24K7aBk7TJeLUwnPSWRUXGJXJ+UyvWZeaxctvZEyApQW0Ft6wSSRiUyylBEWbe3iIbE6czPtHA4bx3/XdX3Us4WZrRaP+KtzWUnB8Kth097fi4uI3HzfsNvFgbx8ROP8Pt9nWmHq4lmF/hG+J66h68vOF04AWdTM/j6csqoIF98ceI8NePtmLsZgiKCMcJp85WgYF9oaj5pFW9wRDPv/+Ap6r77W5755b1YH/wj+5TVigyYc+9JC4CL2srajhcGIxz8opSmkddybXz3MeHcOCkFSr+g0AWlX5TiPGVMApPSInq8uBSxdm0pI6f/G7Nvn05C6Vr+PChuOuWgqsqGn2UUQTYbtuN/IDQitPMCEUdqciBlG95g9cbt5O4poqzaTWDQiSuZvaoWhzmOeHP3ucOJiwk9cb2rLaMWM5Zwd7fj2HCYIogw9fKpI2AyRxFuqKNsTw6b177N6y9tpMKcQWZcL5ewhhacBOIX6d2nM+ET6I233d6jjjbcdjfeAb6cmCWEgOHgrGjs07wiIiIiIiJyJiaSpi9gwX3zmDLqxPs7Q6gZE9DqPtpjQY/h+P/Gpcbhh5XNK95i7cbt5JTYegSuPfcB3G5agaDwrve7Zizh3Xq6GsJJvCaVGHchG9e+xetLl/Ju4VEITSTZ0mNaRxG5JUchNJ1Z0+M4PospjpmzMklKigCbDWxV1B4FH0sKx9vHmpOIMwN1VVS53dRW1QGhxCdHHT8viSmWE79O1xyhZtxVFVRUVFBRBeFxcViCDB67cViX6JkvsGJJMkXPP8ITJ/UPqMR6EMKj4wk6eQ/i432ptVo7Vs9WVlJJPMknZStgjE8mmkr2WU+Xolr5wtpExNgMok9XlDGZiWMjqLUWnbQIz/rWD3hqYza//sFSipIf54XHM07tWSsiF0zfVtIGR5AQH3+83cHIlJtZdH8aTduWU+gC15blvFn4Do++8iJNL77JztpgUm5/lJ9cW8uahz/sWCq/bTlvl77fMebZN9nZFMy19/+E2cFOnD2W4lo/XEv+o4/y8zt8yX/5Q6ynVuQR1du3sT99DnPn21iXXUitO5S4G+cwJ7mZjcveINdWy2EbpKdnkFjb+XjmdNK7BbLukmxyqr7HlAX/ytF1OZQd9SMucyYZgUdp7Wpd4Chia24WD8yaz0z3RnIrmjFYMpg1J5PQwrd46b/LznBhMZM+dxFTyGHtulwqHCYsqddgoY7c2l4uRa2HaCiHK5LD4G9fn/U8NG0uwX7TdYx7tIXi9ZUcdRkIGH8dKTeZqF9RxPEODJHfIDjQjq1I/WhFRERERETOj42CnEImxaRw/QOPE19RQTOhWEZZCKKZgpyijpDW3oy9FYjLYuHcILau247tsB0YRcasSVBhIi49g5Ny1NPsU1ZRQkVrCvET5vKAXwk2cxxxEd13CiL1pjmkB9aSmJtHhdtCapwfHC2k7JSmtA6KNqyjcNQ8Uq5/kCdSqqhqhlCLhSAfOJy3gc0VACVsy60i+cZUbl9koMDqICLpGmJ8jlK4LacjWyjIxTppDvE33sfDoSXUmUYRN6p7uNw1xwQWPuBHXlkzQUnppFrAuq6A3Av8rJyLoIlPs+KFidS9+iCPvLuvx4rWZnJ3FOG7+Famhm/kg65v+o65jVnxTXz56hcd44t28EXTPKbeNpZXn++6eVgQU2/LwNf6FrtOe8d1Fzve/ZjaPy1kya0beeiD7uGwkTELl3BbRBGvvtv9ZmROmmrrOn4u+yM/fX4Cq5/5Jc/smstPsz1+W3eRS5J3aGjo0708TMotjzHjhhuZf++93Hvvvdw7fy4z0oKp3vxLfvj0eirbAOr4+6Z8jqTN5qF//x7fmz+DbwWUsubpH/KLTzr/422rI2fzHtq+dQuLHnuMf597I1H7l/PiniRmWPbwx798cWJZffNB+NZDzL5iJy8/8SeKjgzgGQhM5NpvhVKbm0tpz+MYokm/IQHXnu3sbQBc1ewtrCd4zEQmT/sXJmdcjaX9AH9b8x47v3YDRzhgrcecMpmsrCwy0+MIqPyU4vZELEe+5NNiW8eYvQdwjxpP1vRpTM4YTWDVVv6nIorUkEpy8itx0U5TyT844I4hffIUsrJu5FtxATQUrOOd/ynhSDtgGsW3ro3G9vedlB5vOOugorSGwCuv48Zp08iamE5CQAN//+A9Nh/srUmCk9bIMcSnu6lef5DWkx4LIuK2VPz/mU95fkf8eqzOStU/3IRkZZCwYCJXzk4lfISd2j9+yJ51DbR3nb7JN5CcUM2+N0txtCMiIiIiIiLnwfV1EftqjYR9I5JIy0iiQgy46sr4+4bVrN/b1PFerP1rqupDiY4ZxRXRoRwt3snne6owWK4gISWV0aMCqNv+KXWxSUQ6SsnJPYDjNPuU1FVSVh9KfGw0Iy0htB/8G1sqI7h6pBeVf8+h2GajxHqYkOgrSRxzNWNGBeOu2cPmNevIrzvNIiHH1+z5ogJHQDBhERYivuEPDQfY87e1rN5cQtfbcXtpIQfcIVhGJZB0pYUAewV5m1bz1y8732s6KimqcGMZFceoeAshLQV8+L8OksdEYC/J4fMKx/E5YuITSRwTTwR17P14Ne/t/Pq8V9KaTCZaW1vPPrAH49iHWPnaw4R/vpRfflBDcFQUUVFRREWFYjhSR7MLmq01RN76XR6YHEpleS3+8VP5P88t5urK3/Hki7s7Quq2cqzu61j43Tu5pqWMSmcU31z4DEv+1Z+P/++TrCk7fT+CtsrP2Rf8bf5j8UL+JdLNkTZfohIzuGnxczx3XywlL/2QpzbX0AbgHc9ND3yb4Ny3WPNlxzPTvC+XAzF3snjhN6n+6EP2DeC93UWGOh8fH5yn7T1yMpPJdNK4YXFxcccGsrD+CeL2N3fwc+eTTFy0Hv23fxGEXsP4N6+j6Ue/o7j0QkwYQMyvv0v07rf47N2GCzGhiIiIiIiIiEeFhIRw5Mi5riQzMvO1/+W3U093V68mNvzH9fwwuyNcNcbNZMkzi5k1Lp5gaina8RbPP/V7ck9avBpExr3PsOS7U4mPAOfBL9iw7Cme/6DsLPfzCWLMrYtZvDCLjPiR+FJLbVEuG3/3Kq9md9vXmMVv/ve3RL86hbl/7HZgYwZL1q1gXtOr3HXP79WfVuQM/P39aWw8e+vPkJCQk8YNupA2PH4cCWn384tfpLHzvqn8fJf+q79YAubdy/ixu8n5adF536jNa+xN3PAo/OPhj2g49w8ZRURERERERAad/oW0InI5uURC2nE8ueUd5kccZOfyJ/n+8l1aRSsiIiIiIiIig4JCWhE5m0skpBURERERERERGZwU0orI2fQ3pPUayKJEREREREREREREpHcKaUVERERERERE+qC9vd3TJYjIINff1wmFtCIiIiIiIiIifeB2u/HyUpQiIqfn5eVFa2tr//a9wLWIiIiIiIiIiFySnE4nRqPR02WIyCBlNBpxOp392lchrYiIiIiIiIhIH7S3t9PS0oLJZGLYsGGeLkdEBolhw4ZhMploaWnh2LFj/ZrDcIFrEhERERERERG5ZHUFtUajER8fH7U/ELnMtbe343a7sdvt/Q5oQSGtiIiIiIiIiMg5aW9vx+Fw4HA4PF2KiFwi9HGPiIiIiIiIiIiIiAf1upL20UT/i1VHn7xccsTTJYiIiIiIiIiIiIhcUL2HtEmBF6uOPlFIKyIiIiIiIiIiIpcatTsQERERERERERER8aBeV9LGb/j6YtUhIiIiIiIiIiIiclnSSloRERERERERERERD1JIKyIiIiIiIiIiIuJBCmlFREREREREREREPEghrYiIiIiIiIiIiIgHKaQVERERERERERER8SCFtCIiIiIiIiIiIiIepJBWRERERERERERExIMU0oqIiIiIiIiIiIh4kEJaEREREREREREREQ8y9GWQv78/gYGBeHt7M2zYsIGu6ZJks9k8XYJc5o4dO0Z7eztut5u2trZ+zeHt7Y3BYMDLy0uvBQPgQjxHXl5e+Pj4ePQ56vo9WltbaW9v90gNIiIiIiIiIkPJWUNas9mMn5+fAhmRIW7YsGF4e3vj5eWF2+2mtbX1nPb38fHBYDDotWAAne9zZDAYMBqNA1Rd33X9Ht7e3rhcLtxut6dLEhERERERERnUem134Ofnh7+/v0IZkUvIsGHDjq+G7Stvb298fHz0WnCR9Oc58vLyGhQBbU9Go/Gcfg8RERERERGRy1Gv75wDAgIuVh0ichENGzYMHx+fPo83GPrUGUUuoHN9js5l7MU2mGsTERERERERGQx6DWm9vb0vVh0icpGd6ypNufguledoMNcmIiIiIiIiMhgopBW5TJ1L6wK1OfCMS+U5Gsy1iYiIiIiIiAwGWt4kIiIiIiIiIiIi4kEKaUVEREREREREREQ8SCGtiIiIiIiIiIiIiAcppBURERERERERERHxIIOnCxARkYvnuTG+zLH4XJC51lW18rN9zgsyl4iIiIiIiMjlTCGtiMhlZEq49wWba7z5ws0lIiIiIiIil464uDimTJlyTvts2LCB6urqAaoITCYTycnJxMXFERoaCkBZWRmFhYUDety+UkgrInIZuS//KFkRF+alf7et7YLMIyIiIiIiIpeWrKws4uLizmmf+Pj4AQtL09LSmDVrFn5+fqccMysrC6vVyttvv43D4RiQ4/fFRQ5pjcxYupWfXdttk7OZ+vJ8Ni1/heW7PJ9aDx3x3Pyjuxlr6rbJbaf6QCE7Nm1hf6PHCvMwb1LmPcGtCd02uR3YakrJ27qFz8pbBvbwI6bx8N1JVH6wgvVWfQ1cBp/ilmMUt7R6ugwRERERERG5DBw+fJjs7GxsNttZx5aVlQ1IDbfffjvp6enHf66qqqKqqorQ0FAsFgsmk4n4+Hgef/xxVqxY4bFVtR5YSevEmb+ch3+1CxdgDIzlqlu+w6Lnf41x8f28Uug6j7mvZNHbrzNxx8PMX/7V8a3GrOfZtASen7GE7POZfhCq3PomHxR2BI+GgGhSp0zj1gUG3lm+ifLLdpGbG3fpZlZssuIGDKYQotOnMe3ueZhWvsEnNQN46MYD7C+GmkYFtD15J93B43eOxpaznNc/qQfAd0Qa06ZkkBAdTiBnCtO9CUuZxOTrUogND8TgtlN3oJAdn2xnf33nP3LvVOY9MZsE25e8s2I93fPx+Jt/xN1jHeS9+RqbDl2831dERERERETkcpeXl0d+fj6ZmZmYTKZex/ZceZuXl9encLc3aWlpxwPaqqoq1qxZc0oIm5mZSVZWFn5+fixYsIBly5Z5ZEWtZ9odNDdQXl5OR15azleFVVgSVzLjljSWF+7iEstRB5Abt6ORxsbOQKuxkU/eMxD52DQyRm+mvPCyTWnB3YKtsZE2gMZG6jetIWDE98gYH8Mn68sH7rgt+/lk/f6Bm/9SEjaeu++ZTrTBTnVpMZWEEB17FVPujiTwTyvYcqgN8GbE5Hu4JzMag9tBXU0NTt8wokdncmdsLFtX/YnParr9OzePZcaUApZvKucy/tcvIiIiIiIiMmh0tRo4VxaLhbfffrvfxzWZTMePW1VVxbJly047LicnB6vVyuLFiwkNDSUzM5OtW7f2+7j9NUh60paz90Azd1qiCARcM5ay7jt2/pAdyMw5aUSVL2f+w+9RHZjGnd9fxF0Tr2S40UVD+V6y/7CU5TuqIXAOr/7Pj0kDiF3Jpwuq+Ovi+8jOWsmrt1gAeGbrpzyT/yv+dfFe7nr7dWbsXcKdz58IhY1pj/P2q2ns+O58Xin00Kk4X84a6m0GYkICgUbAm7DU6cy4LolIcyAGt42a4hw2bcqnpg18U+7gezPgw5fWsL8NwJe6RGHbAAAgAElEQVTUBY8xO2wv7yxbj7UNIITrHlhEevmfeG3LUF2K2EhNvQOT2Ywv5ThDxnPfolRqtpYTlpFKbOAB3lu6hv1tAcSMn8aUjAQiAw04bDUcyNvMpt2HcBLGdQ88SPqhd3htU7egd8Q0Hrk/nsIVr/OJYzz3LUrnwMrXj6/YDYmfzLTJqcSGm8Bho2b/Z2zZXHCZnf9TjUjPINrg5sDGFazK7/igwTfpFhbdeRWp6bFsOWSFsAxmZERjsJeycdV75Nd3BLdhaXdy38wEJt2cwf43PqO+27zm9BlM+bIr5BURERERERERT+q6Sde56tk/9lwlJycfn2PNmjW9jq2uriY7O5usrCzS09Mv55B2OFEWI676BuyAEcAykZkxy3nl4aWUNDTQYLyS+b9+nrtcm3hlyXPsrQ8kcea/8/jTv8b4+P28kr+OH327hEWvv8qEXYt5ePlXuFwuXHvn8+29T7PucSNL5ywh2+XCBWzc+BV33pVFmnEXu1wARtJmTGB4STZ/HaoBLYB3CAGB4Oxclu0dP4N5M2Kp2foBKwtrcAQmMO2W2dwxvZ7lm8pxlu6n0jCZpFhv9lvbwDuBpEgDGGIZHQnWQ0BAEqPD7ViH9HfFAwgJNOC223F3bTJEkZJaw5YPVvBevR13mzcjJs/jzpRGtm9axQc1DkyxGcyYcTd3s4KVu+spLKhhUmYqMZvLj7eTGDE2icDqPPJqgJCTj+obfzMLbo3mwNYPWGmtxx2QwMQZ01hwq5vlawppuWzO/6kMvqe+/Dj3/5VlSzdhcHf0K4hMTyXK4ObA9g87A1qANurzN7F97CKmR6eSGvkZn9R1PuSwYzeEkz5jEgVvfMJAdLb4xje+wbRp01i7du0Zv/5gMpm4/fbb2bJlC19//fUAVNF/owOGMeU8bhy2r7mdT+oVgIuIiIiIiMjgFh8fD3Ssou1Ln9nCwkKysrIIDQ0lKirqovem9XxIa4wibc7jLLjKzo6f5nf0qQVw5rPq+ffYZe8cNnEBd0Xl88r8V8ju3Fa9/CkCr3yPRTPSWJ6/C5e9I4DF5cLu6lwf63LR8VdXR2jbubk8+2MKv7OAGROM7NrhAmMaWROG89WqvzKAX4YfWL6RpEybzGhDJZv3d4Rcbdb1rFjmi7Ols0lnSyGf7Z/IffHRBFJOo7OU4soZZHYmgt6xSUTbvyS3cTTxo8PgUD2+CQlEOqxsHaoZoXcAI1JnMynWTvGfDpz4GrzbTvGW9RR0/V6+KWSmmyh85w12d25rLNzCBwHRLEpPJ3L3J9QUfknllEmkxnpTbm0D7xjSkwKp3F7AqfdqCyF10lU4cpazPr/z0cYC1q+PJPq+DJICCslvuQzO/xlUFpZiHzuW2JmLeHh0IQWFxewvtlLvdHY+R75EhoUD1ZSecsO3RsoP2CDaTGSkL3SFtLYCtpQncWtGBjPGF7Bydz0XWlNTE35+fsyfP/+0d340mUzMnz+fYcOG0dTUdMGPf75WpvkR5ON1XnPsa27jZ0UOiluOXaCqRERERERERC6srhW8VVVVfRrfPZQ931W8/eGBkNYX30nPsPXTZ05saj7A9pd/yis77Ce22Rto6NacNuqqWMLCYljy3iYe7zab0eiLb2FHm4SGcymjOpuN+d/h+zMmErgjG9eEGUwILOQP2Z65g1v/GIid+Rg/m3lii9teSd57H5DfPdMyxZKWGkt0ZBhmcwhhkeEYbKbOJ7+F/XsrmZ5xFZEcwnd0NO7yD8mpDCQ1PZ4QbEQnReMozaXy4v5y58GAYfSdPPGzbpsc1ezduIZNJ91NzUFL9/t7hUUTaTITePePSDlpOhMGt40QoKalkLzSKcxITWCTdT/EppJgOMAnhT1DRIAwosMMRE16kB9lnlyfyWAnKgRouRTPf9+0WTex6gMnMyanE5uQzpSEdKbMsHMgbxMfbtlPIyZ8TQBOTrdg1WF3AgZMJ63IdVCz9UPy4u8nfdIM0va/c5rw/Pw4HA5WrVrFggULTglquwe0q1at8kij8bPZWtfGHMv5hbRjgrx5M82Pm3Yeodl99vEiIiIiIiIintLfdgsXmwdCWifO/D+w+OXOXrAuO9Xl1djPspcRcFZl8/SPVnGgx2Mue8O5BbQANLBjUz7ffzyLCYG7YMYEjLuWkn3uE3lUdc6fWF/oBHxJmXE3Gewlz3oiMAxJncd9M8Ko31tIsbWAQls97oSbuTvpxBwt1mJqpqcSHzaCwBgDB7ZU0lJTTP20q4gPqSc21s2BDw4MoRsxuXEf2MrKTdaO1gZuB7bGlj7UbwB3NbnvrCGvR+bqdjvoiNucFBeUMmN2Kgm+pZCagOHAJoqdp5kOA+DmwOaVfGjtkWS53Tg6j3Hpnf++aqO+cAurCrfgGxbD6KRU0jOuIjbjVu5wr+SNT2w4HQC+mExAj+fEFOgLuHE4e5zbtkNs3vQl8feMZcqMVLYMQE56uqAWGPQBLcDP9jn52b7T/oM9qyADTAnz5olEX4J9vHjiSt9+zyUiIiIiIiIykKxWK3FxcZjN5j6Nj4uLO/73vq6+vZDObzlVfzVX89VXX3X86UNAC1C+9wD24YnEUE55edefBoyWWIYbXWef4DTsOzaxy5XGjBlZZKW52LVpV59qGTzcOG311NTUUFNTziebcqmLnMS01K7GqL7EpsbC3k28s/4TdhcUYi2vAVPgyel8436K68IZnZFOTGAl+w+0QYuVYlskoyemEssBCg8MsYjQ0UhdfT319fXU9ymgBeoPUI+ZyHA3jY2Nx/84TGGEmTg+R1tpHsXuWFJTriI1AYrzSjl9TFVDZT2ERYdg7zZfozuAsDDDid64l+L5PytfwmKSSIqPxBdw1pdT8Nl6Vq7cTjUGomJjCMFJTX0dEE5CTECP/UOIiTUDNmpqTj37beVb2LLXjilhCpNjB+azqK6gdtiwYcyfP39IBLTnq9kN62ra+M9/tgLwLbO3hysSEREREREROb3Cwo6bToWGhpKZmXmW0ZCVlQVAWVmZR97Xeyak7QfXrlX85asYvvPLp7lzwpXExKQwcf7T/PL5x1mQFtg5qoGqBoiacAtZaVcSZeza3ECD71VkzZlAWszw7pOyaZedtO8sYoK94+9DWs12thQ4SJg8jRRfACe2ejum2FRSY8IICYkkPu0WpqWYeuzYyP7COqLTxxJeWUhHHtiI1WonYexVGA7s55LLCE/HWcz2PDux0+5kWsoIwkJCiEyazJ3z7mR2RiTH46i2cvL2O0iYMo0Ex37yrGc6OY0UbN+L+6rZ3Dk5iciQEMJGpDDtzru5c1o64d3GXXrnP4zrHvgZP/s/C0jrzFfNYSEYgBabAzARP+VO7rz7FiaNOBH0eYeYMQFutxMHUJNXQDUGYifNJjWsa5w3YWkzyIw24K4uoOC0dwdzsn/LFortJgIDB+4LA92D2ks1oB0dMOyUbfvsHf8go/2GzCVERERERERELjPV1dWUlZUBMGXKFKKios44dsqUKcdX0mZnZ1+U+nry/I3D+sr1FW//9HFci77DXU+/zqNB0Fz1FTte+SmvbOrqUdDAppdfYcLPvsOSpRPJXnInz+9y4cr/A6/8JZbvf+d5lk5dzvyH36Oj86yL/L/uomHmLZD9V/L7tyB3EGmjfOsm9ibdzeRp8ZSut1K+eQ2bZ89g0t2LmImDutIcPisIY0b8yXvWW63UTQmnpfjA8VWhNcVWbJlm6gvPtFL0UtPGoS2reMc2jSmT7ybdbAJ7HQcKP2DV1vKTVuMeyivElp4JBXn0dj8vp3U9qz6YzLSJ01iQYcaEnerSPN7b9Ands8VL7/zXY7XWMSUqlukL5hFbYyB6dBQ4SinY39G3oDC3mMxbR5Nxz/eIqaykhRAio6MIxM7e3OKO37k+l005KdyTmcDsB7/HdTWNOH3DiAw3YXBXsnV9Lme8NVhLIZs+SSV2dgI9P5a4kLqC2q6/X0qeG+NLpaOd4pbWk7aPCewIzA8dbfdEWSIiIiIiIiJ9smbNGhYvXoyfnx+LFy8mOzubwsLC4zcJi4uLY8qUKcTHnwjK+toe4UIbFhcXd8bbc48YMeJi1uIZKd/n7VfT2PHw/Sz/auAOY7PZBm5ykX46cuRIn8b5+/v3Y/YQkmbMZnJKNOEGN7aaUnI3b2L3oa7I2ZuwlClMuy6F6PBATDiw11VS+NkWthbWdwvFvYlMmcLE65KIDTdjcNuoO7Cfzz7ZSmF95yjvVOY9MZuE6q0sf+OzbsFtCGkLHmRmrIO8N19jU2+J+iA1sM/RmT03xpc5Fh/+s8x5vL0BwJxIb/5PZ0/aP1W4+P+/6tunW339PURERERERGTomz9/PikpKWzYsAGTyXS8lcC5KCsrY8WKFeddS1RUFAsWLDinG4itWbOG/Pz88z52b0JCQmhsPHG788s3pA2M4sqYRKb++xLmsJz7F6/rXF07MBTSymDkqQBQ+u5CP0dd4WtPTa3t3J9/lOKWY2cc092ho+3c/vcjNLt7HXacQloREREREZHLh9lsJiUlhby8PDIzMz0a0gKYTCYyMzO5/vrrMZlO/r5tWVkZ2dnZmM1m7rjjjuPbBzqo7RnSDp12BxdY4MTv8+rPJuDau4mlTw1sQCsiMlhMCT/9zb6CfbwYE+jFIWcbY4J67zW7+7CbnxU5+xzQioiIiIiIyOXFZrORk5Pj6TKOczgcbN26la1btxIVFYWfnx8AVVVVp7Qu7Apq77jjDhwOB0VFRRelxss2pLVvWsKMTZ6uQkTk4rov/yhZEae+9De7YWt9G83ujjEr0/wYHejN7sNudttONJ/IrnVT3HLGL2CIiIiIiIiInGSw3b+lqx/t6XStnO0Kaq+//nqFtCIicuEVtxw75UZgPXUPanfb2k7qSSsiIiIiIiJyLgoLC7FYLOfUExYgOzt7gCrqXX5+PjabjaysrItaw+Xbk/YiU09aGYzUk3bw8+RzFGSA8WZvtta1nX3wWagnrYiIiIiIiMgJPXvS9t54UERELlvNbi5IQCsiIiIiIiIivVNIKyIiIiIiIiIiIuJBCmlFREREREREREREPKjXkLatTV9zFblUHTt2xnbUIiIiIiIiIiJyESmkFblMtbe3e7oEERERERERERHhLCGt3W7XajuRS9CxY8dwu93nNF4uvnM574P5ORrMtYmIiIiIiIgMBr2GtA6HgyNHjlysWkTkImltbT2nlfJadesZ53LeB/NzNJhrExERERERERkMDGcb0NjYyJEjRwgKCsLHxwdvb++LUZeIXGDt7e20t7fjdrvPOTRrbW3Fy8uLYcOGDVB10tO5rnZubW0dtK/Pra2tni5BREREREREZFA7a0gLHW+wGxoaBroWERmkusJdHx8fT5dy2ejPameXy4XRaBzAqs6dy+XSSloRERERERGRs+hTSCsi0hUaGgwGvLy88PLqtVuK9MP5rHYGju/n4+Pj0ZXPx44do729ndbWVgW0IiIiIiIiIn2gkFZE+qxrtaYMXu3t7TidTk+XISIiIiIiIiLnQEvhRERERERERERERDxIIa2IiIiIiIiIiIiIBymkFREREREREREREfEghbQiIiIiIiIiIiIiHqSQVkRERERERERERMSDFNKKiIiIiIiIiIiIeJBCWhEREREREREREREPUkgrIiIiIiIiIiIi4kEKaUVEREREREREREQ8yNCXQd7e3gQFBeHr64u3t/dA1yQiIiIiIiIiIiIy6LW1teFwOLDb7bS1tfV7nrOGtAaDgeHDh2Oz2WhqaqK9vb3fBxMRERERERERERG5VHh5eeHt7U1YWBgNDQ243e5+zdNrSGswGHC73Xz99df9mvxSZ/IPwN8/EF+T3/FtrS4n9uYmHEdbPFiZiIiIiIiIiIiI9NWVV17JPffMIygo6Lzm+fGPl/RrRW2vIW1AQACNjY39LupS5h8QREho2CnbfYy+hIZFcLgBHEcU1IqIiIiIiIiIiAx2LS0t+Pj4YDL5ntc8gYGB/cpTew1pTSaTQtoz8A/oPVX39w9SSCsiIiIiIiIiIjJEPPnkM+fd6jUyMrJfeapXbw/qJmFn5mM09vq4r8l0kSoRERERERERERGRwaC/eWqvIa2IiIiIiIiIiIiIDKxe2x0Mat5mkmfMYXqCP9Tu5A9/zqfZU7X4jeOhn9/PhHAfAFr3vMn3X93tqWpERERERERERERkCBmaIa23mWtunsOk4DK2FYzgeouH64m5mjGt2/i/332fcg+XIiIiIiIiIiIiIkPLEGx34EfSjDlcH1DG+tXbOdDc5umC4Egrrf7++Hu6DhERERERERERERlyhmBIe5SD+dv465rtHHB5upZOFTnkHRnHzf8S5ulKREREREREREREZIgZgiEtHKn8J9WDJaAFoIK//NfH+N8ylwl+nq5FREREREREREREhpIhGdIOPgbCw8Px8XQZIiIiIiIiIiIiMuQMzRuHDRajbuPZJ6Zi8ffB2Ghl/X+9xK6jni5KREREREREREREhhKFtOej4n1+/sj7gB+WjLk8+uBcin66kj1uTxcmIiIiIiIiIiIiQ4XaHVwQR6nas586/3As/p6uRURERERERERERIaSoRnSevvh7++Hv38Q/v7egJGAoM5tRk8UZGDMnd8mpjSHXU2eOL6IiIiIiIiIiIgMVUOy3UFo2s3ce3149y3M/U46AE0Fa3nzk68vbkHBmdw64SgfPZtD48U9soiIiIiIiIiIiAxxQzKkPfz393j5756uohtLDOGNVvZUe7oQERERERERERERGWqGZruDwai11dMViIiIiIiIiIiIyBA0JFfSDjrl+ezhu/z0d1PxAVr3vMn3X93t6apERERERERERERkCFBI20+tLhc+xs67lB3dy8qnHmVlt8edDocnyhIREREREREREZEhRu0O+ulIS3OvjzuOtlykSkRERERERERERGQo00rafuoKaU1+AfiaTMe3t7pc2O2NOI4opBUREREREREREZGzU0jbT4lJV1BRUUVDXe8ramVoCQ4xn3VMU6PtIlQiIiIiIiIiIiL/r727j4+qvPP//1omM8FMCAkwJBBuAqNBQklJFwEND2JQsmuJvxK8F3UFXJGuP1Mr6Ir6VWurK7Br8esWdEVYF7FWBbrc1dByt0Tlpg0ECRA7EiADgRgSEiYkMxn2+0dCSEKSORMGJgPv5+PB45E5c+Y6n3Nd55y55sN1rhNsaWlpJCYmXrT8+PHjrFmzJmDb0XQHIiIiIiIiIiIiIkGkJK2IiIiIiIiIiIhIEClJKyIiIiIiIiIiIhJEStKKiIiIiIiIiIiIBFGIJmlNxCSO466Hp/FP2TP5p8fu5ye39Cci2GF1Bv1nM33tBySZoef0HJ57fTKmVle0EHvfZ2SvdfDChvp/j2bFt1inG4Nnfc1zKz8iOfZyBm2hb/YWnpkzoe1VDO9XgETcxJMLlvLx8o/4ePlHfPjsLZgv5/ZEREREREREROSaFRbsADrCMjCduybEUrz1DywvqsJkS2J8xt8zyf0py3dVBDu8EJFCcmYSznkjWJlbC4DX426xTi2uowWccDg5c+bKRxhUg0YwzJ3D8w8upyjYsYiIiIiIiIiIyFUtBJO0JnrYIijP28CGvSfxAlRtZ2vB9dw3dAgxu7ZTHuwQQ0I4YRaA2laSs+e5OfHJNJZ+cvljiYyJgrbCCAaXB7fVijXYcYiIiIiIiIiIyFUvBJO0Xkp2/Teft1jqqnZTFxZ2eW+BD3kWkl7fTdZN4RcWvbCfF16o/9P5m3EsXekE+4vMWDSVXufXObKE96f/khNNyhk8ZzsPpEfVvyz5nI9/5eBHs5/APiAKcp9i/itr8WKh560vMeHhCQwcYAN3KRV7tvLV4tfId1SB/TVmLHrwwnZYxAvp5/92sHFaBl8d9XMXk2ey+I1MeuxZwLQ5OR1P2BdtZodrDlkTVrFvQ2lHSxEREREREREREfEpBJO0rbmOhIHReI/v1CjakuWseiqcMx6oW5HNUktx/WhjANwUzBnBQTNgSSPjgwVYF46+eLoDxy9598dzMQFdM5bz5OSWG3Hz3euj+Zd5EJa+iJ9NH8yPMkv5yysTWFlSCR53/Tbt2UyaPZpj86by61wHdZFJDMyYwS1Z43DMX4vL8Rrv/vg1TIQzcPYGsniNX8/b0LgVr8fofl1gtliJtFiwRFqxXFJFFvHRW+t449VHSc2dR271JRUmIiIiIiIiIiLSpqsiSdtt6HhGx5Wxa3lRq4m7a4rHSZmj4e/y/U1Gv57nrk9+emobXrcx3UFDorWO2ovfa1qOG4ispXDxPL5rmSGP7Ue028H/7NxPrQco3813n8zkuyZl4KF+O27A4m576gWf+9Ww2q75PDRpIbhceNpYxxgztt42PSxMREREREREREQuu5BP0nZLvJ27x0dTvGEFu675YbRBcsrJ963V/c7l/KVkEVkfrObw/u8oO1qAc89WHLv2t5n6DQSPy9XxDyc8yPxXJxJvtWApL2TFr3+lUbQiIiIiIiIiInJZdQl2AB1nImbo33P3+F4Ur/9v/lB4NtgBSUue7WyaOY5FLy8if08xdTEjGJX9OU/Mf5TuwY6tLUXLmfUPU3jg7n/gqaVORv3To4zQcFoREREREREREbmMQnQkrYleIyYyaUwYBatX8KWzjVvkJci6YTJXcfrAWk4fWEsBQP/ZTF+UyeCYpeRdppHPZqs1ANMdVOPMK6D08VuJt8LuigAFJyIiIiIiIiIi0kJIjqTtNeIn3D0mnML1G9ldbiIi4rrGfxZTsKPr7CyYzBZM1vCG1+H1r80tHrPVsCyMcCC88XXLcsIaFoU1vH9hHQs9py/nyUULSBk5FKvZgilmBImZ44g+8x1lZ5pvrs5TeyG21uIxyDxyFstWrWLV21nEdqiExpIY9tAkEgo3k6sErYiIiIiIiIiIXEYhOJLWhG1gLOHhkDLpAVKavVeHY/UHrPnumn98WBssxM5cw2OT7RcWvbCbfwYgj3X33l0/utX+IjMWTaVX40opPLbuQQCc709g6SfFDJ6znQfSoxrXeHjdXfV/lHzOkoef5RhuyhY/wcozzzI+ezkZcVGEuSv5fv8GNsx5jSPNhrm6ObZmOSden8c/rzufPHawcVoGXx31bw89bhdn3GA54+aSxldH38q9qS7WPr8Z5WhFRERERERERORy+ptBgwb9b1tv9u3bl2PHjl3JeELGDYkJHD16nJqzl/MRWHKlRXWPrv9j2D+y8HEPb2YvpajFOpWnlbYVEREREREREbma9OnThxMnTnDu3Llmy9PS0khMTLxo/ePHj7NmzZqLlhvNp3bv3p3Tp083vg7J6Q5Ergi35joWEREREREREZHLLwSnOxC5Ag7tJI+f8YvlEzEDnt3/zvS5X17iw8hEREREREREREQupiStSGuqd/Pe7Ed5L9hxiIiIiIiIiIjIVU/THYiIiIiIiIiIiIgEkZK0IiIiIiIiIiIiIkGk6Q5EREREREREREREWrFlyxa2bNly2bejJO1V4obEBI4ePU7N2dpghxLSKk9XBDsEERERERERERG5xmi6AxEREREREREREZEgUpJWREREREREREREJIiUpBUREREREREREREJIiVpRURERERERERERIIoRB8cZqLX0FTSRl5PXI9wcH3P4YKv2fjlUaqDHZo013820xcN5atJ0zjxSA6P2Rcxf84KvOffv2Uhz2S7+fShbI54rlRQFmLvW879j6QQaalf4vzNOJaudBqLOZBibmTBlJ78bmEuzjF38EaPfB5Z7aS9qohOGsfbSUd46rMijD7mbNj4TH6RbG18nbfuU35ZeM7n5zqyrWbC43l22lhGh5ez7IMcVlZexm35ISJpHItHVvD8h/kUGfxMR+vwcsVzQRduGJnGc2N6E9NwRS/80+95fm9Ns3VGZWTytL2CJf+5lZwOXyh9lzNsfCbPhe9i+vqSdo7jQMVz6aL73cjjaYmk2K6DWhdFB7/h3S1FFF2WE94fXbl10h3MsDl564Md7LhM8RhrLyP8a9NLO+avpAhSM8YyI66KZau3k1PegXPeFEHGj29nhv06KM3jqY8KcQYisg7VYRcSklKYOnIAiT0s4CpnX0E+7+SWNLvuRsQlMuO2RFJirJhrKykszOedLU5K/QnQFM+zM8cyumVP83geT3xS6F9Z57XxnWJOTOXDsS5++cFu9rUbk9G2CEC7+2SkLVqsU+vCWfxXlv3pALubnGMBaS/OXw+vJ8VmBVd9Oe9tc+K86PpjpH7aWcfgseE7ni7EJ6bw+JjmdfhubkljGYE/NtrjOx5j+3Vee/Vcv60nxw4gIQIqSg6xZN1udjQ5Lvzrt3S2foIPBtrLyHnhex3f9dx5dZa+lrHzwmhbXHo5xhgpx/i5fOnbMnSN6sDvShHpfEIySRuROIG7x0dTtPUPLC+qJrxPMuPH/z2T3J+yfNflTu9I6EshOTMJ57wRrMytBcDrcQc5JqMiSB8eTWHeV34lMvdtXMP9W7oAMUydkk7vy7itC7owLDWFxNLjFMd1vczbuvw6VodXQgzpyT0pylnBTEd9r9Djbfkj7BzlpWUURVVx8pKSfZ2tnEtjtiXz6qQEKr7ewfOrK/BExTMlYyQv4mLmxtIgd2q9VJSWUUQF5UGNw6jO0aaBFcGtd97OtKgjvPnJbvbVdqAIUzcy7kxnapSTZfk9ubdPwIP0S3TizfxifBR5W7bx/OEarHGJTL1tLC/WfsGsXVX1K0Ul8FzWMCwFO3htdTnVUX2YknEzv2ATT20pM35ehJmx8j3LPsplm6vJcq+7Ywlav75TWmG4LQLQ7gYYaYuIgSN5cXxvCrdsY5ajCre1J1kZo3juznPM+qThB3qA2qv+ejiA0tztPO+owhNhY+Jto3jxtq94JqekySAII/XjYx0Dx4aReCIGjuTVjHrCt0QAACAASURBVN7s27KVWYfPYrZdz4yMsTzX9Hg2IkDnqZF4AlbPth/w7G092bfuC94stTDqtrFMHeMkr8l3l3/9lhD6fjfSXkbOCyPrGKjnzqtzfC8bOk8NtEWgyjHEQDnGz+VL31Zn60uIyOUVktMdVDt2krNqLX/Ye4zyqgpKCreyxeHGNrg/3YIdnISAcMIsALV4Pe4QStACMddza1QJOQ7/u4Ye7zk8Xq/xDsolbKv+84lMtVfyu20GOiqXuq0rxO86vEIsJnB7vQ3xtT5K5tu8XJ7/LJ/dl5hwaL+cLkSHmwNQzpVhjQDn3j/z5q4SiiprcBY7WJJXjjUhnoTghdXAw+7crTy/qpBvL9uPK+PtZURnaNNAik+5mWm2Ut5Z2dFEXVdSf5zOQ9YjvPnJn9nRzp0EV0qFYx/vrNrCW3tLKaqsYl/hn1nmcDPI3gdbwzoJw4eSeGof/7bFybeV1TiLHbz1pyOYk25kVLgfGwu3YPHWcPJUDaXVTf7VdnBUqj/fKRcx3haX3u7GGGmLQfY4rCX7eW9vKc7qGkpLnSzZcgSXLZ4REfXrBKa9upAy0k7M4Tz+La+0/npYcpT31jlwJw5lbMSFNY3Uj891fB4bRuLpwiCbFWfeV7yztwxnZTVFjnw+KKhhUJI/1/BAnadG4glcPUfH9aR35RHWHq6morqCnNXreKqVxKE//ZbO1k9onbH2MnJeGFnHaD13VsH/XjZ2nvpui0CVY4yReIyey5e+rc7XlxCRyyskR9LiLeO7Vu5BqvN6L88t6XKZWeiZPpcJ0zOJi6zl+z3LWf2reRxz1b83eM52HkiPql+15HM+/pWDH81+AvuAKMh9ivmvrMULmG58lDt+OpUh9n6EuYtx5i5hw8KlnGgoJ+n13WTd1OQb+oX9vPBC/Z/NpjswKnkmi9/IpMeeBUybk3NFRrsNSx6AxfEVeY0HehxP/+NIog+XY+nXm/haB8sKrKQPtxFPCe98soMdHeyYXbytLoy64yc87t3GzJwmHdQIO69Os7P7oxxWNlZCV25NS4SCrWyq7En6ZdyviLhEnrwtsf5Wo9pKCgta3mpkZljKKB4f2Yd+4W6KDx9gSbHpohgibHZmjB9Kis2K2euiyPEN7/7pctz2Hoh4upB652R+bm/yuTvv4fOGPxunO7Als2DKUPqdX+fUfp5pcWu0eeDNLM6AlV9D6k02eoebKC/ex3s5hRd+GPoqp+X7pPHbIef/LmfFf+bwUbmBcs7vu482NRQzXYhPTG64Le46qDvLyeIjrMzNZ3NpfSKg4nA+cw8337Y1wgK1NY1JoPpbZWtY8rWJ9JG9ibeacZUeYVnOn8lt6CiPyMjipaSGuVMq/8pr6yrIuG1Y/RQKjm2Nt5r52q+IpHH8V0aL4RHFu5j+maP5rehGjtWIOKbclkz6wBhiOEvx4ULeyzlQXz9G28sIQ21q7Jg3pL398mMdn3UYHs+UMVby1m1t/7bWdrdVw768P/NmqZN9tRB/SfsVoDr0VrCj+OLF7sYkTleG9bNysvh4s9GunmInhaa/JcUGuQ2f912HXYmoraEiINdQI98pJqLtI3gjbRAJUVBR3PQ8NdgWRtvdpwhGpaYwJakP/azgqixjx7ZdvFtYdeG702dbgNt7DvDS9L+SPXVePHjxeMGf9mpfV+J7mCgvcjVPgFeWU0oCiT2ov1XaSP0YWsfXsWEknnPs27WJl1t8strlxh3WleZpwAAcGz7b1Eg8gatnV6ULV1RPEsLBWVu//Q4lDn1eww32xwLVT/DJSHsZOS+MnTu+69l439jXNdNYX8J33+bK9rV8MXZe+G6LQJVjJGZjx4+hczkg2/KjLyEiV4XQTNI2YyIiPpkxA+twbPyr5qTtbEqWs+qpcM54oG5FNkstxRcn0iOTGNJ/AetnLcBlHUf6Cy9xz8zdvDN/A17cfPf6aP5lHoSlL+Jn0wfzo8xS/vLKBFaWVILHXV9e7APc8+pUaj58lvc353Emcgw/yp7L/S/U8v6cj3HhpmDOCA6aAUsaGR8swLpwdOvTHRiJGTBbrERaLFgirVg6Wj+VRcz95AjlXvDkbeP5sJq2O9mmODISvexY1eJ2nTAzrqIdvPynnjz9eBoZptXM+tDElEduJ2NgF3Z0ZN7UVrd1jryCEsgYxDBTKbsbKiXaPoDE8iLea9K5juiXzH09Snh3dQWe8J4d2JbB/YpJ5KWsRMq3fcWswkpcUb25d3yL2yHtI3k6NYp9Gzcxt+gs5h59yEzthoWyC9uKSuDnkxJxf/0VzxSWU2GKITMjlV/c6eWpVUcDOgVDYOI5R+7qFewwAfRkxrQ0orf8njdbTndQms+s//sNANakNBamtBFUeDQJtdt4/oMqPKZoptx9O0+nlV/4weGrnCbvp9yWyZOmP/NEzvHGH64e78XrtRmPgTY1FHNMIk9n9KFo/SbeLHLhCbeSkvQDJqb0YXeO8+I2NXXlBvuNTEs2s29LUfN5viJ6M6xuG//nwx14TBGk3pbGk3feiPOjAxQBu3N+z/1/ArP9ZhanRZORVEXOuvW8VekF77nGeHztV3XBVu4/eOEGl/gxt/NGy1vaDB2r0UzJuplRp/J480MnpUSRmnYzz2W4eGL1UaqNtpcRBtrU9zHfjaz7bierR2sb8JK37r9567CB/TKy7wbrMDoxkRSXkyVRKbwxLY54kwdnsYNlG5v+OPW9rYriVo61i/gux9B1w29diO6XyH0Dz7Fj45GGOLsSb4XqyhbfRF431bUWbFFdgHPGjsNwM5Y6L7bhNzN/TBy9qcF5uJBlWxx+j1A19J0S0Zv0uG/44LMDVIRHk5F2M0/e6Wo8T420hbF2983cL5GJtio++uzPfFPpJabfMJ6+cywPla9nSatzPbTWFvBtfiFFd9u5r18JS4pr6m95vakfZkce22rBcHv55MHlghhrfbKjsTTrdUSHmXCZjNePoTr0eWwYi+diXRmWEIXn+L6LruGXemz436atxRO4evYc3s+myr/jobQ48vy5tbolI9/LRvpjAeknGPsu8N1eRs4LY+eO73o22Dc2cM002pfw2be5Yn0to9/dF7dP8/Oio9exQJVzcbm+y+noNaoj2zpnsC+Bf78rRaTTCuEkbU9ueXgyKT3CCKur5ODGtfzhuxC6bf1a4XFS5mj4u3w/J1pbx13Ajg9XcMwD8DEbVtzFk5mj6cWGhvXdeD2AG4ispXDxPL5r9r/tFmInTyV2z1zeWbu9PqHq2srOhZ+TvOhBkvt/zFdHm5TjOf8robb1qQ6MxAx4ds3noUkLweXq+Begtwbn+c59dVW7D3+JSBjEsEoHL7f8MVBXQ2m5B7wuTrrcmMvrHxjlrDTxA6sFqLmoLF/a2pan+BD7GMXYPl3YXXwO6MqoIdEUFWxv8oMomqy0OJxf5zR2VjuyLSP7NSwlkfjiPby2t6y+Q1nq5L2NDhbcl8jYLSXk1HZh1PB4KNzCOwUNSeBqB8sKBpDapNOaMHwoCcV5zNx7PlFcxsqNB0h9ZCjpUUfbfeCZfwIZz/kfNfUdzvPTHbR0fpnb205jeMvYdH40kLeClXvLyBzZh3hKG49JX+U0vl9fYP0tlu2t10Y5vtvUWMzmqCh6eyv4XVEV1V6guoodu75iR2sbtSWzYEoiluNOtuX8kd85WpwztSfJadxWNblb9pPxj0NJtx1o+HHeJLEZ7mF3buFFtxYa3a+mbehpJSlk5NgwD0wkPcLJe78tapgqoYy16/5ILhdGCBttLyPab1Mjx3wVX6xez7Y2ync11IOR/TKyju867MKwhJ4Q1oVhYfv44LNv8ET1JjMthRcn0TgXqJFtGeG7HGPXjfP1bW7x4/Di60I0Ux+5nYweJix1LrZv3MI7jVPNmOqnT8ELUXZenZJC74NbeGpjQxmm+muvoePQZMJs7c2o8Dze/ewbiOpNVloKz90Jz3zmaPYwmPZjNvidUnuSNblH+RaAEj5al88PpiU2OU99MdbuRmL2FO/m5SYjtqoPF5Jbfj2j4rpCadPrS3ttAZQX8mZON16d9BM+x4s7zISraBe/XOdsODaMtZfvmD3sKDzJQ+OTeehgBcsO1+AJ70bGmAR6U8O+aqP1Y/Dc8XlsGInnYrakUTwUV87Kj5zNz8FLPjb8adP24glUPUNEXDyJ4V6siTfzXPEXvFxQTXxKOq+OiYaiHcxcb/xhQT77CQb7mZfeTzD2XeCbkfPC2LljqJ4N9I3969fRZl/CaN/myvS1OtZeF58X/lzHAlVOe9dDY+UYv0Zd+rYM8+N3pYh0XiGcpK1g16rfsjfMQpTtekam/oS7wn/P57s762OHpE1uN3VNXtaUV4Ililb/E/KUk+8vuh0qili7ncgfzmNW6rwW71USHWOBo5cnge9xuXyvFBBdGTvchrMgr/2nDbfoi5k7NO10O9vynmTTYXgyqSfm4lI8EXGk2irYtu5Cb8Q2PIX0ukJeLjDSqbiU/epKfI+uuEqrmv8YO9Vwq5ENcoqtxEdBxeHmifTmnVYziX2iiOk3lg/tLTdcQ3wUELAkbWeLp0Fd85eeOjeEdcHa+tqXkZE2bVjmI2ZPsYMvKsfx9LQMCosrKCot41DpSXYcrmo9gVZ3kk8++4rNrf2eafkjp7aGCq+1foRDaYsEWLWr4ZbIDu5Xu4wdG71t3bBWt3i6sLcmSA/lM3LMQ3W178Smkf3yvY6ROuxK7ygTntIDvJvXMKKosoh31kVxwxQ7GbZClpQGrp59l2OsDgFsKeksSut1YYHrEK/9xw52N1urkk9WrSPHZCHaFse9Y9N5MXwTL+dVAV7cXrBggroanKXleMo9eM7fPO51Y/Q49BzewWMLm7xVXsVbG6NZeLedjBhH463NvmI2/J3Sct7Nahcn2zpPW2Ws3Y3EjCmajLRkJiZEExNe35sxh5souqjX3V5bgM0+ihfTrOzO+SNvlZzFEx7FiJEpvJhl4s2VhXzrNdJexmKuKNjBv8XczJN3/oRMvLiqT/LFQRfuyhp2lBqtH2N1aOTY8B1Pc7aGB7F9k/PHJlMvNbjkYwM/2rT9eAJSz5XxzLgzEc+W9TxVm8wbPx7L1FOb2BbVFVfBNl7+2o8HJPkrIP3Mthn5LvDNyHnR1fc64Qbr2WffuAP9ulb7Eh3o27QqcH0tf9ur9fPC+HUsUOW0fz00Vo7Ra1QgtiUi15YQTtJ6cVdV4QaqyssoNcXyj2kpDNy9iVbvrJCrXC0Va6by7wu2BzuQyyNqAOm2Mr5Y7/+o2MBu6xz7CpxwR/1tXUX2QQwqPcJb53to4XE8NMbKjvWF7SddDW3Lt8A98sjLybxNzNxyKbcOB1Jni+fKCVibesv46KPfkxPXm2G2aAbZevN3ySlMO7WLZ1YVNX+6fKWTlVtOBugBXa0XcmWP1Q7O9xo0Rm+ZNLJfRtbxVYfncNd5KT/V2lxzdqIbHwgSqHoOXHuVHtzBPx+3XJiCx3uWQxetdY7qymqqqcZZXsGbYX1YnDaUEXk72E0NThcMizJDtZP3Pmu4kpviiQh3U1p5riHejl2jPKcqKK2LJ8YK5ydybzdmf79TLonRdvddz8PSxjK1TzFv/nYbu6vPARFkTfkxo1rZZtttEU1m6gA8eetYUng+omqcOXkkPj6W++x/5ZeFRtrLWMxQw+7cTTyW24XocBOuWhPpd9+B6+Af2We4fozXYUsXHxu+4jmvC/FJN/NqWhT71v+Rt1reCREgxtvUVzyXXs/mqAGkhJXwb44aKry7ePPrNH5x5yiiy00488qo6OjD+YKuo7fPt2TkvPC9jrmf0Xr20TduiN+/a2YbHRJ/+jbtCEyfxJ/2au+8MH4dC1Q57V8PjZZj7BoVmG2JyLUkJJO0ppieRFWWUd7s+8sLmDCZaPN7Ta5WlZxwlBI5dChWttM4ttU8ggFDSzmSf/l+2pmt1kub7sCg+MQEbMX55F6Bp7P62panuIgd3lTG9omg95BoDh386sKIL1s8w6xWrHf+hLGNnzBhDTOR8EgWWY4dTG9yC96l7VcNRadqsEZ1I4KKCz9mesRgo4odpwBcOCsh3WbFTHXjdi2mpkkRD4dKa4i2RWOj7EIH19SNETYPu0sC+YOvs8XT2RhpU6O6YDado7SkhM0lJWwGiLmR+VPsjIooYm3TH0+1ZeQWdmlnPmhL8x80UVHEm1zsM9x5DtR+GTs2TpZW4UmJIt5Ek9GZXYmPcuO84h1+I8e8sVsmjeyX73WM1GENRaU1xPSwNm+vKCs2XByqNB6PEb7LMVKHDaqr+LadYU3mmGh6V1Y0H7Xb0H+ymABvDfuKXTzUrw82qhrrx9wvnkRvWcNIUoPXqPCepNpc5BZfuGaZe0QTjav506nbi9ngd0r9YlPz8zTCSm+Ti0J/zlMD7e4zZrqSYOvKyaKihmRefcwt85O+28KEuZ1eujnMBBhpLyMxN3WOitpz2JJu5t6oI7yzsqphuZH6MViHRo+NduMB6MINKWN5boyZ3NV/ZElxG1fxSz42jLWp4Xja3S8DdWjrgrnO21hOUd423on7O54bcpZlOaGc1AnUdAdGzgsD6ww0Xs/t9o0D2q/zo2/TTv0Epk9itL18nRdGr2OBKgcf10M/ygHav0YFelsici0I7D0qV0Q3hk/4CffdNY6h8dF069aNXgOHc8eYvtQ6DlKsBO1VyILJbCGs4b8gw8z1r03m8/8n6ebEiiUc7p/NPTMnEhvTC2v/Cdz86iLueSyT7i3KMVnDG16HtyjHP+aRs1i2ahWr3s4ituM7Z0A0GUkWdu89eUnJYLOpS/08cABhpobXHdlWGZsc5xgx8oek28rIbfq/2MX5zHrv9zz1n+t55vy/z77hUF0lOau+4JmNx5uUe+n7tS+vEGe/H/Lk8J7Yws1E2+J5fLwdS+F+tlUDnGPHXickjuTJpJ7ER3QloZ+de5O6NXvY27d531BoS+bnqfEkRJiJjokj6850fp42oNlTVI3VYXsuRzz1l3GLqfV4zq9zPqHT9DP+MFqOp7Z+pN359/2Nx3ebGpMw8nYW3z+Kif26EW3qgjmiG6OS4+ldW3HRLYQ3pN3Bb2dOZsHIbq0XFt6TzNT+3BDVFZstnqkZw4gvP8SmJj8czKYuDUkAE5iavg7sfhk5NjzF+9lUG8+UjASGRZmJiIrm1ox03rjj+oueCuyrvYxov02NHfPV1TWUtvGv2mt8v4ysY6QO69srhSeH24iPqG/3xzOGElO8n5xyP+rZ1BVbRFdsERFEW01AV6Kj6pdFhxstx1gd+hZBRkY6b9z9t2T064YtKoIbBiby8zG9cTkO8U1DPRfl7aewxzB+nhbPDTERJPSz8/RtA3AVHKh/irvBOrTZhzFjUjpPD7eREBVBQr8Enhw/CPPhQjYZnbLFn++U8N5kpsY3nKdxTPlxMglNz1MDbWGk3X1rSLL16Um8CaALtoF2UqJMmE1mIkxG26KcXIeL+JEjmWKPro89xkbGbSmM4iSbijyG28tfNvsofpFmZtO6vGbzABupHyPr+HtstBVPQko6L40xk7tuB2tOmRrat/5fRNNr2SUfG0ba1I94LrGePcVOCsPieSjt/PdSb4aFlbP9eBQT0/pja7INI/2WztRPMPJdYORcNnJe+FrHn3put2+M0X6d776E0b7NleprGWkvI+eFkfYKVDlG+FtOW+dywLZl4JgXkavH3wwaNOh/23qzb9++HDt27ErGY4ylJ8NTUxkxJJYe4WHUub6nuGAnG7cXUXWFkrQ3JCZw9Ohxas5egaGNBnS2eAy7ZSHPZLv59KFsjjT80jLd+gGzpn/Pfz38LMewMHjOdh5Ij7r4syWfs+ThZzl/hJpufJQ7fjqVIfZ+dKWUkp2fs2HBPI6UA1iInbmGxyZfNBkUkMe6e+8mz/APsAbJM1n8xmR67Pk10+asxd+PG2XuN4qF42t488P8hodeNBXH0/+YQsWq9Swp7caUKbcT//XvmeuAWydNJvPwOmblVTNsfCa/SG5thtGTvLtwU+MDAtrfVhO2ESycMoTooi+Zvupo+/NRRdh5Y5qdHR/mNHsAVyD2CyAiLpEnb7uRFNt1UFtJYUE+721rOr+jmWEjR/H4TX3oZ/JSfHgfS4rjeW54Gc9/mN84qX6Ezc6M8UNJsVmxcpZDhwtZ8qcDjZP/G61D3wITT0LqHfzrTa2cF5zk3fc2kVNNwwOxhtKvlbUObVnNrLxqzANvZnGGl39rMjehOTGVD8e6+OUHu+tv2TJQTuPe2RJ5cVIyP7Ce/9VVzor/zKmff9JgOb7a1FDMdGVESjL3pcSTEGXBUufmZMkRVm7JI6fFHIQJI2/jjbFRFG35I8/nNR8BUV9uDe9s8ZKZNojEKBPlxw+xZP2fyW04nkdkZPFSUivpssqD/J/GeIwcq83Fj8xgfoKDmZ85ms1z6uvYaNgYUzKSSe8XQwxuiosdfJSTz44WJ2u77WWEoTY1dswbYmS/DKxjpA6bt5eLwoPfsGRLEUVe49uKH5nB22NjWt2Vk/l/ZObGMoMxB6gOw6PJSE0ha0hPeoebcLvK2VewjyVfNz8OI+LszLhtKCkxVsze+mP1nS3OZrfS+q7DLiQkpTB15AASe1jqj/mD37Bky9HmdeivVr5TGs/TbV4yx7Z+nhptC0Pt7kt4T7IyRjExzoTH6+WkI49lpXaey+iHa+cXZOdWGGyLroxK/VvuHdKb+CgLlrqzFJc4WdviOmakvYwxM2zkWJ5O8bJ29VesLLn4v1CN1I/vdYweG+3F04VbJ93D/5/Q2n542b56BXMd5wJ3bPhs00pD8QSqnqMHJvN0mp3EHhY8lcf5IucrPjrVm2enjCJm1x/5P3lVJBrpt/i8hkcZ648Fqp9ggPFz2cB1zMc6Ruq5sfV89I19XTON9SUM9G2uaF/LF2PnaX087bVFoMoxzlg5vs/lQGzLcF9CRAKiT58+nDhxgnPnLu3uFKP51O7du3P69OnG16GZpO0EOltStLPFI4HShVF3ZHJv6SZm7aryvbq2JRJQ/v8gCZy2krQiIiIiIiISeMFO0obknLQi14zweDL6VbFpyxVIZF6t27piopn6yO1k9mjtfnEveetW8MvCUJ4rTq6EprcjmsOBOi/BebavjmcREREREZErSUlakc4s4hyHvs5nkx/zQ2lbwVLJylVfkNPGnJ5uPaFVfIn7Wxbefz2NN7TVlrNpnbP96UQuGx3PIiIiIiIiV5KmO+igzja9QGeLR0REREREREREJFQEe7oD/x/dKSIiIiIiIiIiIiIBoyStiIiIiIiIiIiISBBpTtqrxLeFRcEOQURERERERERERDpAI2lFREREREREREREgkhJWhEREREREREREZEgUpJWREREREREREREJIiUpBUREREREREREREJotB/cJjlejKnTcAe/j25H3zKrqpgBxRE9uksnD+ZARbAfQbHb+fw1CeOYEclIiIiIiIiIiIi7QjxkbQm4lNHE1fq5FRdsGPpBByLmZk1kYkTJzJpwX7633Qj1mDHJCIiIiIiIiIiIu0K7SRtTDJp9gq25x6iNtixdDIWayS4XbiDHYiIiIiIiIiIiIi0K4STtNcxdFwyFHxNQaU32MF0LuZkHpscy841O/EEOxYRERERERERERFpV8gmaU3xYxjT4whbtpehFG1z9kdmMtKxkAVfuoIdioiIiIiIiIiIiPgQoknanoxOG8Cpr7/GqQxtKyxYImOI04S0IiIiIiIiIiIinV5IJmm7DU8lqS6frfvPBjuUTsmx+BUWn5nM26s2sHbtWla+civmYAclIiIiIiIiIiIirQoLdgB+s/QndXQ3HOvzKQ92LJ1UbFY2D/fI4Zl7V3CgXLPSioiIiIiIiIiIdGahl6S1DaKfNYrwO/+BIY0LTYSHhWF7ZBojHFtZ8oe/XtPz1Mba++N2vO8jQWsm1m4nxuzi6IGjaPZaERERERERERGR4Ai9JK3za5b/x85mi0wRN3LnfUMoXrWWXaXV13SCFmD/ms3w6mNMXDGLtSfaWMmaTvbbs/mh4zdMe0pJWhERERERERERkWAJwTlp3VRXn232r6q6ljq8VFdWUe2+1lO04DnwIYv39Of++5PbXsk+lP6WM+xZk0NbeVwRERERERERERG5/EIwSduK6gJ+9++fsqsq2IF0Fi52fumgR//+WNtYI8Zup8epnazYpDG0IiIiIiIiIiIiwXR1JGmlFW7cbb5nxj40lpLNK9il54qJiIiIiIiIiIgEVejNSStts09n4fzJDLAA7lPseX9xG3PNetj1+n1Mv7LRiYiIiIiIiIiISCuUpL2aOBYzM2txsKMQERERERERERERP2i6AxEREREREREREZEgUpJWREREREREREREJIiUpBUREREREREREREJIiVpRURERERERERERIJISVoRERERERERERGRIFKSVkRERERERERERCSIlKQVERERERERERERCSIlaUVERERERERERESCKCzYAXSIKYHMJ+7A3jL649v44Hd7qQpKUJ1E/9lMXzSUryZN48QjOTxmX8T8OSvwBjuuq80VrmfrxPms+tlQ3O761+4jK5g1czEOwHzrHH43OxULABYsp9bwzMMLyL9MsYiIiIiIiIiISGCFaJI2HBMn2PLRegqrmyyvc1Pd5odEQtuZnfO4d85mPC2Weza/Ttbmhhf26Sx+JfIKRyYiIiIiIiIiIpciNJO04RbCvdVUlp+lWkNERUREREREREREJISFaJI2gvDaamqVoPWThcFztvNAelT9y5LP+fhXDn40+wnsA6Ig9ynmv7IWL2C68VHu+OlUhtj7EeYuxpm7hA0Ll3LCdaGsnre+xISHJzBwgA3cpVTs2cpXi18j33Fhwonw5BncMXMqQ663wZliDm9ewPrfrOB0w3DQ8Ikf8bPJ+1k6/ZecKexl9gAAEb1JREFUaPiMNesznszYzqKZ8zjtR8zETCB99mySf2gnkkq+37Oc9fPmcaT8Qg0Ear8MS57J4jcy6bFnAdPm5FDu+xMiIiIiIiIiInKNCdEkbThhdV6sw2/nwdEDiKKaU4f3sXXLXkrcwQ4uyEqWs+qpcM54oG5FNkstxU3mSXXz3euj+Zd5EJa+iJ9NH8yPMkv5yysTWFlSCR53/bqxD3DPq1Op+fBZ3t+cx5nIMfwoey73v1DL+3M+xgVgz2bS7NEcmzeVX+c6qItMYmDGDG7JGodj/tr6dfrP4IFXH+TMh8+yaE4BdT3Gccusl3gou4r352+g1tAOGYzZPJr0+XNJdMzl02kbKCOJpOy53DPbwTtzVtRvK1D75bOeLzBbrERaLFgirQ1zxoqIiIiIiIiIiDQXmknaMBMma18Sw3PJ+XwXRPVl5LhUJt3p5aPPC67tB4d5nJQ5Gv4u3984OvUCN14P4AYiaylcPI/vmg3vtBA7eSqxe+byztrt9YlH11Z2Lvyc5EUPktz/Y746CsT2I9rt4H927qfWA5Tv5rtPZvJdk3L6Tn6QnvsX8PHKrfVJ0vIVbJifxOC3H2XI4g3kGx5W6itmMN30IMmRW1k972OOeQC2kvfyXRRanA3J4EDtl9F6blht13wemrQQXK6L5pIVERERERERERGBUE3SHt7E+4uavC6vYMPGXky9exhDYgrYpXvKjTnl5PuL6iqKWLudyB/OY1bqvBbvVRIdY4Gjbti5nL+ULCLrg9Uc3v8dZUcLcO7ZimPX/oakqI3Y/jZqHM7mI2ZLHJwmk/j+FvLLOzDsudWYIbL/YLqe2to4jQIAHieuxteB2i//eVwu3yuJiIiIiIiIiMg1KzSTtK3wln9PZd0gukWAJv68VLVUrJnKvy/Y3vYqnu1smjmOv9w4jvihScTaRzAqO5sJJ+aydNZSTgOd7/7+AO2XiIiIiIiIiIhIAHUJdgAdYunL4Pjrmi+L6YWVKsorgxPS1aOSE45SIu1DsTZdbB7BgOT4Jgu6YTJXcfrAWgpWzmPT/JksnbOEM0MzGRwDUMoJRyld+8cT3rScODvdceA8Wj+Kts5VC5E2ws0XVgmzNPuEIWeOFlPXox/dzU2XxtM9tluA98t/ZqsVs+/VrhAzsfYbufHG/s3rQUREREREREREgiYkk7Td7ClkTPoJfz+8P726dSMmfggTxg/BdDifwmt6QlojLJjMFsIaRrmGmetfm8znh726ObFiCYf7Z3PPzInExvTC2n8CN7+6iHsey6R7Qxk9py/nyUULSBk5FKvZgilmBImZ44g+8x1lZ+rLObZiOWVDs7kzaxzdrb2w2icyYdZdhG1aysGG0c7e/ds5ETmOcY9MoGfsYHqOfJRbbu3XYoi3r5jBu3MpfzkzgQmzH6VvbC/CY0eTPGsJj73wYEPMgdov/5hHzmLZqlWsejuLWP8/HnjWdLLf/r/8609HEhnsWEREREREREREBAjR6Q6q9v+BT0hl/MgJ3Dc+HGrLKTm4ic+3/pXqYAfXqVkYPGc7D6RHNS55eN1d9X+UfM6Sh5/lGMCJpXz6PNzx02d5aFk/ulJKyc7P+fTldxtu93dTtvgJVp55lvHZy8mIiyLMXcn3+zewYc5rHDk/D+zRd/n4Zbhj5lye+KkNzhTj3Pway36z4cL8rieWsHKenayZC3jifqjYs4RNu4pJHulnzJ7tbJqTDdmzueeDl4ikku/3r2Hlr5ZcmKIgUPvlB4/bxRk3WM646cAMvIFnH0p/yxn2rMlp82FnIiIiIiIiIiJyZf3NoEGD/retN/v27cuxY8euZDwh44bEBI4ePU7N2Y4+TkrEOOvE+SxLXcO9czbTbq7YPp3Fr0Sy4OEF5LfydkzW2yy7v4SXH3qdXR1IOouIiIiIiIiIXI369OnDiRMnOHfu3CWVYzSf2r17d06fvvD0o5Cc7kBEOsKMfWgsJZtXKEErIiIiIiIiItKJhOR0ByLXHI8byw9ns2rtbADcR1Ywa+ZiHID51jn8bnYqjTP0nsppY2oFD7tev4/pVyRgERERERERERExSklakRDgypnDxJzW3/Nsfp2szVc0HBERERERERERCSBNdyAiIiIiIiIiIiISRErSioiIiIiIiIiIiASRkrQiIiIiIiIiIiIiQaQkrYiIiIiIiIiIiEgQKUkrIiIiIiIiIiIiEkRK0oqIiIiIiIiIiIgEkZK0IiIiIiIiIiIiIkEU4knabgyecD9PPHw7Q2NMwQ6mc+g/m+lrPyDJDD2n5/Dc65O5uGYs9M3ewjNzJlzixi61HAt9s7/mhQ2Oxn/3Z3S7xJg6EwP1Y6i9AuO6G1KZOv9Z5n78Bm99+DQ/nZpED/Nl2piIiIiIiIiIiBgWFuwAOq4biZmTGR/1V1Z/kovTHex4xH9uji0Yx7/8BiCF8R8soWewQ7pa2Ubx+Eu3EbbpM37z1jHO2hL5/2bcz0/N/8G/vHeUumDHJyIiIiIiIiJyDQvZkbQxIyYw3uYkZ5UStP4LJzImqpOU48brceP11AYgns4mUPV86eIzU0lw/oklSwooclZwYvcOlrybT8TYNJIjgh2diIiIiIiIiMi1LTRH0lquJ3VMN4rWr+G76mAHE0LsrzFj0YP0alywiBfSz//tYOO0DL46Wv8qPHkGd8ycypDrbXCmmMObF7D+Nys47fGnnMEMnvki6beOIa4H1JQUUPBfL5GTsx/v5di/mAmkz55N8g/tRFLJ93uWs37ePI6UX1il3f0Cwid+xM8m72fp9F9youEz1qzPeDJjO4tmzuM0wC0LeSYbtv4WkienEB0Zzpn9y1n9q3kcc/lTP35InsniNzLpsWcB0+bkUO77E01EckNiDGXffMepJkvr9hVyyJxJ0iD4yz4/4xERERERERERkYAJySRtxJAkBroOsTEqlXunDiDKVEtl8T5yN+7VqNqS5ax6KpwzHqhbkc1SS/GFhKjjNd798WuYCGfg7A1k8Rq/nreh8aPehkQl/WfwwKsPcubDZ1k0p4C6HuO4ZdZLPJRdxfvzN1BrsBxT8lRu6f8d/zPnJQ6X1BL5w2wmvbCAcUcy2XQgwA1lHk36/LkkOuby6bQNlJFEUvZc7pnt4J05K6g1sl/+bC8yiXjXEyx9eD9e62jS5y/hnpm7eWf+BrxG6xnab6+mu2exEmmxYIm0YvG7cmLoGQ1VFVXNF3uqOOvqSpQtDDThgYiIiIiIiIhI0IRgktZEv4GxEBZGP9NONn62C29UX0akpTJpEiz/3V4/RxleZTxOyhwNf5fvbxwNWs8NHvACdW7AUj/VQHMW+k5+kJ77F/Dxyq31icvyFWyYn8Tgtx9lyOIN5JcbKQe8+S+xLP/C69ovl1Nw5C7sQ21wwBmoPQbAdNODJEduZfW8jznmAdhK3st3UWhxNiRfjeyXHxt07yZ/U8OIYNd2vlxTwKjJo+nFBk4YqucG7bZXk9V2zeehSQvB5cLTxjptCyPMDHgA2yiy/zWTHjuW8No79YvMlq7AGb9LFRERERERERGRwAjBJG0EEVFheEvz2bL7KG6AqoNsWh9NvweHMbzXXrZ+H+wYQ5mN2P42ahzO5iNLSxycJpP4/pb6JK0R5hEkZ8/mph8mER1ZvygsMpwTOeGBDprI/oPpempr47QFAHicuBpfB3C/ANzNx57WuSrBEoWpoztggMfl6uAn66jzAGbAc4YS53E8h2qoo2v9IndN4IIUERERERERERG/hWCStg5vXR2uU+U0S6lVllHOMCKsgJK0l8b/++lbLWRA9iLuGLqBT2dN5bsTbmAwNy9cw5BAFN+xkK5R5ZRVwNDo66CigE+eL6hfbE7mOmsNlaWa6kBEREREREREJJi6BDsA/52ltLQaa49uzUctRnUjiiq+rwxWXFeLUk44SunaP55m413j7HTHgfOo0dGmNnoOiKJi1+cNCVqAwI+gPe/M0WLqevSju7np0ni6x3Zr+NvYftW5aiHSRniTcsIsly9uf5itVsy+V2vFGb4tLKfnDxLp0WRp2LBEBnmOUHAoMPGJiIiIiIiIiEjHhGCSFkp253OqXyp3DO9LTMR1dOt1PeMmpBBVnE/BNT0hrXF1nlrAgsl84V89N8dWLKdsaDZ3Zo2ju7UXVvtEJsy6i7BNSzlYbrScUsqOVBJpH92QOLXQ/ZYHGRIXDpaoJknQ8587nwgNb1GOMd6dS/nLmQlMmP0ofWN7ER47muRZS3jshQfp7sd+efdv50TkOMY9MoGesYPpOfJRbrm1X4eHnLddP/4xj5zFslWrWPV2FrEd+LxzzRa+jb+NqVOTSYiPJn5EKlNnJFO9bQv51R0KSUREREREREREAiQEpzsAyveyahWMHz+BB8dHQG0lJQdz+WzrQZRvMsLNsTXLOfH6PP553fnkqION0zL46ihw9F0+fhnumDmXJ35qgzPFODe/xrLfbGg+n2u75bg5svBZvnzhRR5dNpU6dyWndy0g5/147vnZ5zza4y7eXVhA3+ytTM20XShy9nb+eTbA16yeNIV8o9OwerazaU42ZM/mng9eIpJKvt+/hpW/WsLp8+sY2a8TS1g5z07WzAU8cT9U7FnCpl3FJI/0u5J91I9/JXncLs64wXLGjR8z515Q+heWvHYd98/4e36aEYPZc5JvN/2W3yw7iiY7EBEREREREREJrr8ZNGjQ/7b1Zt++fTl27NiVjCdk3JCYwNGjx6k5W+t7ZREREREREREREem0+vTpw4kTJzh37twllWM0n9q9e3dOn24cWhiiI2nlGjKC9MXLuWVAa/PC1nLwVyP4bHOHxpaKiIiIiIiIiIh0CkrSSidXwJdz7iK/jalca04pQSsiIiIiIiIiIqFNSVrp5NzUntiPJpUQEREREREREZGrVZdgByAiIiIiIiIiIiJyLVOSVkRERERERERERCSIlKQVERERERERERERCSLNSdtB3xYWBTsEERERERERERERuQpoJK2IiIiIiIiIiIhIEClJKyIiIiIiIiIiIhJEStKKiIiIiIiIiIiIBJGStCIiIiIiIiIiIiJBFIIPDuvGyAcfItXW2nuV5H/yEZtKrlAo9uksnD+ZARbAfQbHb+fw1CeOK7RxERERERERERERuRqEYJIWoI7ijb9lvaOucYmpXyr3TYjg+8orGIZjMTOzFgNgvvUVfpd5I9ZPHLiuYAgiIiIiIiIiIiIS2kI0SQt1tdVUV3sbXlkYnDiAsMNbOVgdnHgs1khwu3AHZ/MiIiIiIiIiIiISokJwTtoq8ld/ygaH98KiiOtJGejFkXcoOElSczKPTY5l55qdeIKxfREREREREREREQlZIZikBXdVBdVNcrQxScOIqzxAntPb9ocuI/sjMxnpWMiCLzXRgYiIiIiIiIiIiPgnJJO0zZh6M2J4NKV7C/g+aEFYsETGEGcNWgAiIiIiIiIiIiISokI+SWsamMyQ8GPsLagKWgyOxa+w+Mxk3l61gbVr17LylVsxBy0aERERERERERERCSUh++CweteRmDKIuqI/UBjEJ3bFZmXzcI8cnrl3BQfKNSutiIiIiIiIiIiIGBfaI2ljbiQlrprC3UcJzmy09WLt/XE79ihBKyIiIiIiIiIiIn4L6SRt3PAkYsoL2FsS3Dj2r9kMtz7GxNjgxiEiIiIiIiIiIiKhJ3STtKb+jEiMoGTvAcqDHIrnwIcs3tOf++9PDnIkIiIiIiIiIiIiEmpCN0nrPcof3v8PPt97NtiRAC52fumgR//+WIMdioiIiIiIiIiIiISU0E3SdjpugvjsMhEREREREREREQlRYcEOIKTZp7Nw/mQGWAD3Kfa8vxhXsGMSERERERERERGRkKIk7aVwLGZm1uJgRyEiIiIiIiIiIiIhTNMdiIiIiIiIiIiIiASRkrQiIiIiIiIiIiIiQaQkrYiIiIiIiIiIiEgQKUkrIiIiIiIiIiIiEkRK0oqIiIiIiIiIiIgEkZK0IiIiIiIiIiIiIkGkJK2IiIiIiIiIiIhIEClJKyIiIiIiIiIiIhJEStKKiIiIiIiIiIiIBNH/A+QgNoAitH7FAAAAAElFTkSuQmCC;" vertex="1" parent="1">
          <mxGeometry x="-600" y="-90" width="1385" height="498" as="geometry" />
        </mxCell>
        <mxCell id="M4ANcZjag6311-E_DbSd-2" value="Violation rule 4: Underscores (_) should not be used in URI" style="shape=table;startSize=30;container=1;collapsible=0;childLayout=tableLayout;strokeColor=default;fontSize=24;" vertex="1" parent="1">
          <mxGeometry x="-840" y="-193" width="1630" height="608" as="geometry" />
        </mxCell>
        <mxCell id="M4ANcZjag6311-E_DbSd-3" value="" style="shape=tableRow;horizontal=0;startSize=0;swimlaneHead=0;swimlaneBody=0;strokeColor=inherit;top=0;left=0;bottom=0;right=0;collapsible=0;dropTarget=0;fillColor=none;points=[[0,0.5],[1,0.5]];portConstraint=eastwest;fontSize=16;" vertex="1" parent="M4ANcZjag6311-E_DbSd-2">
          <mxGeometry y="30" width="1630" height="29" as="geometry" />
        </mxCell>
        <mxCell id="M4ANcZjag6311-E_DbSd-4" value="&lt;font style=&quot;font-size: 24px;&quot;&gt;API&lt;/font&gt;" style="shape=partialRectangle;html=1;whiteSpace=wrap;connectable=0;strokeColor=inherit;overflow=hidden;fillColor=none;top=0;left=0;bottom=0;right=0;pointerEvents=1;fontSize=16;" vertex="1" parent="M4ANcZjag6311-E_DbSd-3">
          <mxGeometry width="235" height="29" as="geometry">
            <mxRectangle width="235" height="29" as="alternateBounds" />
          </mxGeometry>
        </mxCell>
        <mxCell id="M4ANcZjag6311-E_DbSd-5" value="&lt;font style=&quot;font-size: 24px;&quot;&gt;IBM ML&lt;/font&gt;" style="shape=partialRectangle;html=1;whiteSpace=wrap;connectable=0;strokeColor=inherit;overflow=hidden;fillColor=none;top=0;left=0;bottom=0;right=0;pointerEvents=1;fontSize=16;" vertex="1" parent="M4ANcZjag6311-E_DbSd-3">
          <mxGeometry x="235" width="1395" height="29" as="geometry">
            <mxRectangle width="1395" height="29" as="alternateBounds" />
          </mxGeometry>
        </mxCell>
        <mxCell id="M4ANcZjag6311-E_DbSd-6" style="shape=tableRow;horizontal=0;startSize=0;swimlaneHead=0;swimlaneBody=0;strokeColor=inherit;top=0;left=0;bottom=0;right=0;collapsible=0;dropTarget=0;fillColor=none;points=[[0,0.5],[1,0.5]];portConstraint=eastwest;fontSize=16;" vertex="1" parent="M4ANcZjag6311-E_DbSd-2">
          <mxGeometry y="59" width="1630" height="34" as="geometry" />
        </mxCell>
        <mxCell id="M4ANcZjag6311-E_DbSd-7" value="&lt;font style=&quot;font-size: 24px;&quot;&gt;Additional remarks&lt;/font&gt;" style="shape=partialRectangle;html=1;whiteSpace=wrap;connectable=0;strokeColor=inherit;overflow=hidden;fillColor=none;top=0;left=0;bottom=0;right=0;pointerEvents=1;fontSize=16;" vertex="1" parent="M4ANcZjag6311-E_DbSd-6">
          <mxGeometry width="235" height="34" as="geometry">
            <mxRectangle width="235" height="34" as="alternateBounds" />
          </mxGeometry>
        </mxCell>
        <mxCell id="M4ANcZjag6311-E_DbSd-8" value="&lt;font style=&quot;font-size: 24px;&quot;&gt;Note the use of hypermedia in the response body&lt;/font&gt;" style="shape=partialRectangle;html=1;whiteSpace=wrap;connectable=0;strokeColor=inherit;overflow=hidden;fillColor=none;top=0;left=0;bottom=0;right=0;pointerEvents=1;fontSize=16;" vertex="1" parent="M4ANcZjag6311-E_DbSd-6">
          <mxGeometry x="235" width="1395" height="34" as="geometry">
            <mxRectangle width="1395" height="34" as="alternateBounds" />
          </mxGeometry>
        </mxCell>
        <mxCell id="M4ANcZjag6311-E_DbSd-12" value="" style="shape=tableRow;horizontal=0;startSize=0;swimlaneHead=0;swimlaneBody=0;strokeColor=inherit;top=0;left=0;bottom=0;right=0;collapsible=0;dropTarget=0;fillColor=none;points=[[0,0.5],[1,0.5]];portConstraint=eastwest;fontSize=16;" vertex="1" parent="M4ANcZjag6311-E_DbSd-2">
          <mxGeometry y="93" width="1630" height="515" as="geometry" />
        </mxCell>
        <mxCell id="M4ANcZjag6311-E_DbSd-13" value="&lt;font style=&quot;font-size: 24px;&quot;&gt;Postman request example&lt;/font&gt;" style="shape=partialRectangle;html=1;whiteSpace=wrap;connectable=0;strokeColor=inherit;overflow=hidden;fillColor=none;top=0;left=0;bottom=0;right=0;pointerEvents=1;fontSize=16;" vertex="1" parent="M4ANcZjag6311-E_DbSd-12">
          <mxGeometry width="235" height="515" as="geometry">
            <mxRectangle width="235" height="515" as="alternateBounds" />
          </mxGeometry>
        </mxCell>
        <mxCell id="M4ANcZjag6311-E_DbSd-14" value="" style="shape=partialRectangle;html=1;whiteSpace=wrap;connectable=0;strokeColor=inherit;overflow=hidden;fillColor=none;top=0;left=0;bottom=0;right=0;pointerEvents=1;fontSize=16;" vertex="1" parent="M4ANcZjag6311-E_DbSd-12">
          <mxGeometry x="235" width="1395" height="515" as="geometry">
            <mxRectangle width="1395" height="515" as="alternateBounds" />
          </mxGeometry>
        </mxCell>
      </root>
    </mxGraphModel>
  </diagram>
</mxfile>
